<?xml version="1.0" encoding="UTF-8"?>
<!DOCTYPE svg PUBLIC "-//W3C//DTD SVG 1.1//EN" "http://www.w3.org/Graphics/SVG/1.1/DTD/svg11.dtd">
<svg xmlns="http://www.w3.org/2000/svg" version="1.1" width="498px" height="501px" style="shape-rendering:geometricPrecision; text-rendering:geometricPrecision; image-rendering:optimizeQuality; fill-rule:evenodd; clip-rule:evenodd" xmlns:xlink="http://www.w3.org/1999/xlink">
<g><path style="opacity:0.227" fill="#6fcdb4" d="M 253.5,45.5 C 248.138,44.3825 242.804,44.3825 237.5,45.5C 237.611,44.8826 237.944,44.3826 238.5,44C 240.5,43.8333 242.5,43.6667 244.5,43.5C 247.814,43.3425 250.814,44.0092 253.5,45.5 Z"/></g>
<g><path style="opacity:0.137" fill="#74ceb7" d="M 232.5,46.5 C 231.22,47.9313 229.553,48.5979 227.5,48.5C 228.78,47.0687 230.447,46.4021 232.5,46.5 Z"/></g>
<g><path style="opacity:0.322" fill="#89d4c1" d="M 253.5,45.5 C 257.892,46.3593 261.225,48.6927 263.5,52.5C 260.158,50.1639 256.825,47.8305 253.5,45.5 Z"/></g>
<g><path style="opacity:0.569" fill="#89d4c0" d="M 227.5,48.5 C 227.027,49.9063 226.027,50.573 224.5,50.5C 224.973,49.0937 225.973,48.427 227.5,48.5 Z"/></g>
<g><path style="opacity:0.173" fill="#7dd4be" d="M 247.5,52.5 C 242.452,51.006 237.452,51.1727 232.5,53C 227.679,55.2434 223.012,57.7434 218.5,60.5C 225.411,52.9148 234.078,49.7482 244.5,51C 245.737,51.2321 246.737,51.7321 247.5,52.5 Z"/></g>
<g><path style="opacity:0.251" fill="#83cfbb" d="M 224.5,50.5 C 222.371,52.9501 219.704,54.6167 216.5,55.5C 218.629,53.0499 221.296,51.3833 224.5,50.5 Z"/></g>
<g><path style="opacity:0.341" fill="#84d4c3" d="M 212.5,57.5 C 205.646,57.6283 198.646,57.9616 191.5,58.5C 193.681,56.9821 196.181,55.9821 199,55.5C 203.454,56.4934 207.954,57.16 212.5,57.5 Z"/></g>
<g><path style="opacity:0.208" fill="#74cbba" d="M 216.5,55.5 C 215.713,57.1042 214.38,57.7709 212.5,57.5C 213.514,56.3263 214.847,55.6596 216.5,55.5 Z"/></g>
<g><path style="opacity:0.255" fill="#83d6c2" d="M 263.5,52.5 C 265.587,53.5846 266.92,55.2512 267.5,57.5C 266.5,56.8333 265.5,56.1667 264.5,55.5C 263.89,54.609 263.557,53.609 263.5,52.5 Z"/></g>
<g><path style="opacity:0.458" fill="#81d6c0" d="M 302.5,58.5 C 295.487,57.2067 288.487,57.2067 281.5,58.5C 281.611,57.8826 281.944,57.3826 282.5,57C 289.515,54.7164 296.182,55.2164 302.5,58.5 Z"/></g>
<g><path style="opacity:1" fill="#f7fef6" d="M 302.5,58.5 C 303.514,59.6737 304.847,60.3404 306.5,60.5C 307.659,62.2503 309.326,63.2503 311.5,63.5C 314.563,67.5658 318.229,70.8991 322.5,73.5C 322.937,75.0744 323.937,76.2411 325.5,77C 335.216,77.1406 344.883,77.8073 354.5,79C 359.166,80.6661 363.499,82.8327 367.5,85.5C 367.738,87.4044 368.738,88.7377 370.5,89.5C 371.331,96.1311 371.664,102.798 371.5,109.5C 370.883,109.611 370.383,109.944 370,110.5C 369.626,108.509 368.793,106.842 367.5,105.5C 366.849,97.5105 363.183,91.5105 356.5,87.5C 356.027,86.0937 355.027,85.427 353.5,85.5C 351.123,84.1127 348.457,83.2794 345.5,83C 337.841,82.5003 330.174,82.3336 322.5,82.5C 321.833,82.5 321.167,82.5 320.5,82.5C 319.738,80.7376 318.404,79.7376 316.5,79.5C 315.089,77.086 313.089,75.4194 310.5,74.5C 309.738,72.7376 308.404,71.7376 306.5,71.5C 306.027,70.0937 305.027,69.427 303.5,69.5C 302.713,67.8958 301.38,67.2291 299.5,67.5C 298.817,65.8235 297.483,65.1568 295.5,65.5C 293.208,63.7329 290.542,62.7329 287.5,62.5C 284.5,61.8333 281.5,61.1667 278.5,60.5C 279.71,60.0679 280.71,59.4013 281.5,58.5C 288.487,57.2067 295.487,57.2067 302.5,58.5 Z"/></g>
<g><path style="opacity:0.145" fill="#72cdb5" d="M 302.5,58.5 C 304.38,58.2291 305.713,58.8958 306.5,60.5C 304.847,60.3404 303.514,59.6737 302.5,58.5 Z"/></g>
<g><path style="opacity:0.439" fill="#82d8be" d="M 187.5,59.5 C 187.167,60.1667 186.833,60.8333 186.5,61.5C 185.833,61.5 185.167,61.5 184.5,61.5C 184.973,60.0937 185.973,59.427 187.5,59.5 Z"/></g>
<g><path style="opacity:0.973" fill="#c8f1e7" d="M 191.5,58.5 C 190.101,59.8897 188.434,60.8897 186.5,61.5C 186.833,60.8333 187.167,60.1667 187.5,59.5C 188.568,58.5655 189.901,58.2322 191.5,58.5 Z"/></g>
<g><path style="opacity:0.063" fill="#7ed2be" d="M 267.5,57.5 C 268.911,58.9076 270.577,59.9076 272.5,60.5C 275.42,59.4144 278.42,58.7477 281.5,58.5C 280.71,59.4013 279.71,60.0679 278.5,60.5C 275.531,61.3287 272.531,61.4954 269.5,61C 268.177,60.1841 267.511,59.0174 267.5,57.5 Z"/></g>
<g><path style="opacity:0.251" fill="#83d3bf" d="M 306.5,60.5 C 308.674,60.7497 310.341,61.7497 311.5,63.5C 309.326,63.2503 307.659,62.2503 306.5,60.5 Z"/></g>
<g><path style="opacity:1" fill="#eafae9" d="M 264.5,55.5 C 265.5,56.1667 266.5,56.8333 267.5,57.5C 267.511,59.0174 268.177,60.1841 269.5,61C 272.531,61.4954 275.531,61.3287 278.5,60.5C 281.5,61.1667 284.5,61.8333 287.5,62.5C 281.129,61.7143 275.296,63.0476 270,66.5C 269.228,66.3552 268.561,66.0219 268,65.5C 267.146,62.4076 265.646,59.7409 263.5,57.5C 264.338,57.1583 264.672,56.4916 264.5,55.5 Z"/></g>
<g><path style="opacity:0.188" fill="#7cd5bb" d="M 248.5,52.5 C 253.787,53.3105 258.787,54.9772 263.5,57.5C 265.646,59.7409 267.146,62.4076 268,65.5C 268.561,66.0219 269.228,66.3552 270,66.5C 275.296,63.0476 281.129,61.7143 287.5,62.5C 290.542,62.7329 293.208,63.7329 295.5,65.5C 287.554,62.4541 279.887,62.9541 272.5,67C 270.833,67.6667 269.167,67.6667 267.5,67C 265.65,63.6381 263.317,60.6381 260.5,58C 256.356,56.2411 252.356,54.4077 248.5,52.5 Z"/></g>
<g><path style="opacity:0.18" fill="#7bd4b9" d="M 218.5,60.5 C 216.964,63.5239 214.464,65.1906 211,65.5C 206.645,63.6827 202.145,63.1827 197.5,64C 193.997,66.0222 190.663,68.1888 187.5,70.5C 193.493,62.6375 201.326,60.3042 211,63.5C 213.805,63.1791 216.305,62.1791 218.5,60.5 Z"/></g>
<g><path style="opacity:0.016" fill="#80d1bf" d="M 311.5,63.5 C 315.771,66.1009 319.437,69.4342 322.5,73.5C 318.229,70.8991 314.563,67.5658 311.5,63.5 Z"/></g>
<g><path style="opacity:0.427" fill="#85d8c2" d="M 184.5,61.5 C 182.5,64.1667 180.167,66.5 177.5,68.5C 178.833,65.1667 181.167,62.8333 184.5,61.5 Z"/></g>
<g><path style="opacity:0.8" fill="#a1e4d1" d="M 295.5,65.5 C 297.483,65.1568 298.817,65.8235 299.5,67.5C 297.847,67.3404 296.514,66.6737 295.5,65.5 Z"/></g>
<g><path style="opacity:0.251" fill="#7bd2bf" d="M 299.5,67.5 C 301.38,67.2291 302.713,67.8958 303.5,69.5C 301.847,69.3404 300.514,68.6737 299.5,67.5 Z"/></g>
<g><path style="opacity:0.227" fill="#78d4bd" d="M 303.5,69.5 C 305.027,69.427 306.027,70.0937 306.5,71.5C 304.973,71.573 303.973,70.9063 303.5,69.5 Z"/></g>
<g><path style="opacity:0.341" fill="#7dd5c1" d="M 306.5,71.5 C 308.404,71.7376 309.738,72.7376 310.5,74.5C 308.596,74.2624 307.262,73.2624 306.5,71.5 Z"/></g>
<g><path style="opacity:0.624" fill="#8edcc8" d="M 310.5,74.5 C 313.089,75.4194 315.089,77.086 316.5,79.5C 313.911,78.5806 311.911,76.914 310.5,74.5 Z"/></g>
<g><path style="opacity:0.667" fill="#9de1d0" d="M 177.5,68.5 C 175.118,73.2476 171.784,77.2476 167.5,80.5C 167.5,80.1667 167.5,79.8333 167.5,79.5C 170.609,75.6029 173.943,71.9362 177.5,68.5 Z"/></g>
<g><path style="opacity:0.149" fill="#84d8c2" d="M 187.5,70.5 C 183.773,75.2297 179.44,79.2297 174.5,82.5C 178.227,77.7703 182.56,73.7703 187.5,70.5 Z"/></g>
<g><path style="opacity:0.255" fill="#7dd3bb" d="M 322.5,73.5 C 324.14,74.3201 325.807,75.1534 327.5,76C 336.883,76.1467 346.217,76.8134 355.5,78C 360.431,79.1142 364.431,81.6142 367.5,85.5C 363.499,82.8327 359.166,80.6661 354.5,79C 344.883,77.8073 335.216,77.1406 325.5,77C 323.937,76.2411 322.937,75.0744 322.5,73.5 Z"/></g>
<g><path style="opacity:0.659" fill="#97dccb" d="M 316.5,79.5 C 318.404,79.7376 319.738,80.7376 320.5,82.5C 318.596,82.2624 317.262,81.2624 316.5,79.5 Z"/></g>
<g><path style="opacity:0.891" fill="#dcfcf4" d="M 322.5,82.5 C 330.174,82.3336 337.841,82.5003 345.5,83C 348.457,83.2794 351.123,84.1127 353.5,85.5C 352.5,85.5 351.5,85.5 350.5,85.5C 350.167,85.5 349.833,85.5 349.5,85.5C 340.56,83.9874 331.56,82.9874 322.5,82.5 Z"/></g>
<g><path style="opacity:0.066" fill="#6ecdb6" d="M 167.5,79.5 C 167.5,79.8333 167.5,80.1667 167.5,80.5C 165.117,82.3582 162.45,83.6916 159.5,84.5C 155.167,84.5 150.833,84.5 146.5,84.5C 150.982,83.6745 155.649,83.1745 160.5,83C 162.886,81.8068 165.22,80.6401 167.5,79.5 Z"/></g>
<g><path style="opacity:0.078" fill="#74d0ba" d="M 174.5,82.5 C 173.738,84.2624 172.404,85.2624 170.5,85.5C 171.262,83.7376 172.596,82.7376 174.5,82.5 Z"/></g>
<g><path style="opacity:0.164" fill="#6cceb3" d="M 320.5,82.5 C 321.167,82.5 321.833,82.5 322.5,82.5C 331.56,82.9874 340.56,83.9874 349.5,85.5C 340.182,84.8491 330.849,84.3491 321.5,84C 320.944,83.6174 320.611,83.1174 320.5,82.5 Z"/></g>
<g><path style="opacity:0.596" fill="#ade7d5" d="M 146.5,84.5 C 150.833,84.5 155.167,84.5 159.5,84.5C 152.991,85.3288 146.324,85.9954 139.5,86.5C 141.438,84.8372 143.772,84.1706 146.5,84.5 Z"/></g>
<g><path style="opacity:1" fill="#f4fcf6" d="M 253.5,45.5 C 256.825,47.8305 260.158,50.1639 263.5,52.5C 263.557,53.609 263.89,54.609 264.5,55.5C 264.672,56.4916 264.338,57.1583 263.5,57.5C 258.787,54.9772 253.787,53.3105 248.5,52.5C 248.167,52.5 247.833,52.5 247.5,52.5C 246.737,51.7321 245.737,51.2321 244.5,51C 234.078,49.7482 225.411,52.9148 218.5,60.5C 216.305,62.1791 213.805,63.1791 211,63.5C 201.326,60.3042 193.493,62.6375 187.5,70.5C 182.56,73.7703 178.227,77.7703 174.5,82.5C 172.596,82.7376 171.262,83.7376 170.5,85.5C 163.891,86.9695 157.225,88.1361 150.5,89C 148.347,89.0995 146.681,89.9328 145.5,91.5C 143.596,91.7376 142.262,92.7376 141.5,94.5C 140.206,95.2899 139.039,96.2899 138,97.5C 135.006,106.306 132.839,115.306 131.5,124.5C 130.5,124.833 129.833,125.5 129.5,126.5C 129.5,127.167 129.167,127.5 128.5,127.5C 126.973,127.427 125.973,128.094 125.5,129.5C 123.596,129.738 122.262,130.738 121.5,132.5C 119.5,132.5 118.5,133.5 118.5,135.5C 118.5,136.167 118.167,136.5 117.5,136.5C 116.21,137.058 115.377,138.058 115,139.5C 114.333,144.167 114.333,148.833 115,153.5C 115.278,154.416 115.778,155.082 116.5,155.5C 115.803,161.077 113.636,166.077 110,170.5C 109.51,171.793 109.343,173.127 109.5,174.5C 109.737,175.791 109.404,176.791 108.5,177.5C 107.355,181.311 107.188,185.311 108,189.5C 108.608,191.066 109.442,192.4 110.5,193.5C 110.427,195.027 111.094,196.027 112.5,196.5C 113.905,200.236 116.571,202.569 120.5,203.5C 121.527,204.848 122.86,205.348 124.5,205C 128.909,198.345 133.909,192.178 139.5,186.5C 142.37,185.567 144.704,183.9 146.5,181.5C 151.081,180.418 155.414,178.752 159.5,176.5C 163.599,176.142 167.599,176.142 171.5,176.5C 166.135,179.168 160.802,181.835 155.5,184.5C 152.911,184.461 150.911,185.461 149.5,187.5C 147.216,187.975 145.216,188.975 143.5,190.5C 140.495,190.25 138.662,191.583 138,194.5C 137.667,194.167 137.333,193.833 137,193.5C 136.506,195.134 136.34,196.801 136.5,198.5C 134.738,199.262 133.738,200.596 133.5,202.5C 133.672,203.492 133.338,204.158 132.5,204.5C 130.526,206.428 129.026,208.761 128,211.5C 127.333,215.5 127.333,219.5 128,223.5C 128.2,225.32 129.034,226.653 130.5,227.5C 131.779,230.652 134.112,232.652 137.5,233.5C 140.947,236.438 144.947,238.438 149.5,239.5C 150.492,239.328 151.158,239.662 151.5,240.5C 151.973,241.906 152.973,242.573 154.5,242.5C 156.121,244.942 158.454,246.275 161.5,246.5C 161.5,246.833 161.5,247.167 161.5,247.5C 160.448,247.351 159.448,247.517 158.5,248C 162.527,252.197 167.527,253.697 173.5,252.5C 173.5,252.833 173.5,253.167 173.5,253.5C 166.054,253.778 158.721,253.112 151.5,251.5C 149.618,250.249 147.618,249.082 145.5,248C 144.207,247.51 142.873,247.343 141.5,247.5C 140.486,246.326 139.153,245.66 137.5,245.5C 136.508,245.672 135.842,245.338 135.5,244.5C 134.089,242.086 132.089,240.419 129.5,239.5C 129.573,237.973 128.906,236.973 127.5,236.5C 126.662,236.158 126.328,235.492 126.5,234.5C 126.771,232.62 126.104,231.287 124.5,230.5C 124.049,223.668 123.383,217.002 122.5,210.5C 121.22,209.069 119.553,208.402 117.5,208.5C 117.027,207.094 116.027,206.427 114.5,206.5C 114.027,205.094 113.027,204.427 111.5,204.5C 108.169,201 105.002,197.334 102,193.5C 99.133,188.901 97.9664,183.901 98.5,178.5C 99.7384,176.786 100.405,174.786 100.5,172.5C 101.906,172.027 102.573,171.027 102.5,169.5C 106.942,166.394 110.276,162.394 112.5,157.5C 111.556,153.611 110.056,149.944 108,146.5C 107.503,144.19 107.337,141.857 107.5,139.5C 107.328,138.508 107.662,137.842 108.5,137.5C 112.741,132.756 117.241,128.09 122,123.5C 123.559,121.783 124.392,119.783 124.5,117.5C 126.28,116.01 126.946,114.01 126.5,111.5C 126.216,109.585 126.549,107.919 127.5,106.5C 129.402,102.345 131.069,98.0114 132.5,93.5C 135.167,91.5 137.5,89.1667 139.5,86.5C 146.324,85.9954 152.991,85.3288 159.5,84.5C 162.45,83.6916 165.117,82.3582 167.5,80.5C 171.784,77.2476 175.118,73.2476 177.5,68.5C 180.167,66.5 182.5,64.1667 184.5,61.5C 185.167,61.5 185.833,61.5 186.5,61.5C 188.434,60.8897 190.101,59.8897 191.5,58.5C 198.646,57.9616 205.646,57.6283 212.5,57.5C 214.38,57.7709 215.713,57.1042 216.5,55.5C 219.704,54.6167 222.371,52.9501 224.5,50.5C 226.027,50.573 227.027,49.9063 227.5,48.5C 229.553,48.5979 231.22,47.9313 232.5,46.5C 233.919,45.5489 235.585,45.2155 237.5,45.5C 242.804,44.3825 248.138,44.3825 253.5,45.5 Z"/></g>
<g><path style="opacity:0.718" fill="#96dfcb" d="M 350.5,85.5 C 351.5,85.5 352.5,85.5 353.5,85.5C 355.027,85.427 356.027,86.0937 356.5,87.5C 354.214,87.405 352.214,86.7384 350.5,85.5 Z"/></g>
<g><path style="opacity:0.125" fill="#80d7c0" d="M 170.5,85.5 C 167.497,87.2617 164.163,88.4283 160.5,89C 155.412,89.4268 150.412,90.2602 145.5,91.5C 146.681,89.9328 148.347,89.0995 150.5,89C 157.225,88.1361 163.891,86.9695 170.5,85.5 Z"/></g>
<g><path style="opacity:0.443" fill="#8ad7c3" d="M 367.5,85.5 C 369.262,86.2623 370.262,87.5956 370.5,89.5C 368.738,88.7377 367.738,87.4044 367.5,85.5 Z"/></g>
<g><path style="opacity:0.725" fill="#a4e7d4" d="M 139.5,86.5 C 137.5,89.1667 135.167,91.5 132.5,93.5C 133.833,90.1667 136.167,87.8333 139.5,86.5 Z"/></g>
<g><path style="opacity:0.039" fill="#74d3b4" d="M 145.5,91.5 C 144.738,93.2624 143.404,94.2624 141.5,94.5C 142.262,92.7376 143.596,91.7376 145.5,91.5 Z"/></g>
<g><path style="opacity:0.78" fill="#a7e0d4" d="M 370.5,89.5 C 371.793,90.842 372.626,92.5087 373,94.5C 373.726,99.5523 373.559,104.552 372.5,109.5C 372.167,109.5 371.833,109.5 371.5,109.5C 371.664,102.798 371.331,96.1311 370.5,89.5 Z"/></g>
<g><path style="opacity:0.71" fill="#93dcca" d="M 132.5,93.5 C 131.069,98.0114 129.402,102.345 127.5,106.5C 127.816,101.536 129.483,97.2027 132.5,93.5 Z"/></g>
<g><path style="opacity:0.192" fill="#6edcbf" d="M 256.5,107.5 C 256.5,106.5 256.5,105.5 256.5,104.5C 255.167,104.5 253.833,104.5 252.5,104.5C 253.635,102.912 254.969,102.579 256.5,103.5C 257.782,104.958 257.782,106.292 256.5,107.5 Z"/></g>
<g><path style="opacity:0.482" fill="#8dd8c7" d="M 251.5,104.5 C 249.431,107.573 246.764,109.906 243.5,111.5C 245.569,108.427 248.236,106.094 251.5,104.5 Z"/></g>
<g><path style="opacity:0.212" fill="#80d5bf" d="M 356.5,87.5 C 363.183,91.5105 366.849,97.5105 367.5,105.5C 369.351,116.06 366.851,125.394 360,133.5C 358.259,134.758 356.426,135.758 354.5,136.5C 365.582,126.529 369.082,114.195 365,99.5C 363.113,94.7874 360.279,90.7874 356.5,87.5 Z"/></g>
<g><path style="opacity:0.118" fill="#7bd4bc" d="M 206.5,119.5 C 198.384,117.741 190.718,114.908 183.5,111C 181.19,110.503 178.857,110.337 176.5,110.5C 176.392,112.514 177.058,114.18 178.5,115.5C 173.305,113.274 173.305,110.941 178.5,108.5C 188.222,111.403 197.555,115.069 206.5,119.5 Z"/></g>
<g><path style="opacity:0.063" fill="#74d3b7" d="M 256.5,107.5 C 254.478,111.522 251.478,114.522 247.5,116.5C 250.215,113.118 253.215,110.118 256.5,107.5 Z"/></g>
<g><path style="opacity:0.404" fill="#89cfbe" d="M 141.5,94.5 C 136.976,103.591 134.143,113.258 133,123.5C 132.617,124.056 132.117,124.389 131.5,124.5C 132.839,115.306 135.006,106.306 138,97.5C 139.039,96.2899 140.206,95.2899 141.5,94.5 Z"/></g>
<g><path style="opacity:0.584" fill="#87d7c3" d="M 126.5,111.5 C 126.946,114.01 126.28,116.01 124.5,117.5C 124.875,115.302 125.542,113.302 126.5,111.5 Z"/></g>
<g><path style="opacity:1" fill="#e8fbec" d="M 206.5,119.5 C 206.5,119.833 206.5,120.167 206.5,120.5C 203.506,120.146 202.506,121.146 203.5,123.5C 202.833,123.5 202.167,123.5 201.5,123.5C 197.789,120.145 193.456,118.145 188.5,117.5C 185.411,116.215 182.078,115.549 178.5,115.5C 177.058,114.18 176.392,112.514 176.5,110.5C 178.857,110.337 181.19,110.503 183.5,111C 190.718,114.908 198.384,117.741 206.5,119.5 Z"/></g>
<g><path style="opacity:0.596" fill="#91d9c7" d="M 243.5,111.5 C 241.037,115.3 237.704,117.967 233.5,119.5C 236.539,116.46 239.873,113.794 243.5,111.5 Z"/></g>
<g><path style="opacity:1" fill="#f2fcf5" d="M 367.5,105.5 C 368.793,106.842 369.626,108.509 370,110.5C 370.383,109.944 370.883,109.611 371.5,109.5C 371.091,113.264 371.091,116.93 371.5,120.5C 374.22,121.86 376.886,123.193 379.5,124.5C 380.5,124.833 381.167,125.5 381.5,126.5C 382.08,128.749 383.413,130.415 385.5,131.5C 385.5,132.167 385.5,132.833 385.5,133.5C 383.887,133.056 382.72,132.056 382,130.5C 381.517,131.448 381.351,132.448 381.5,133.5C 379.102,129.779 375.768,127.112 371.5,125.5C 368.297,133.044 363.297,139.21 356.5,144C 351.068,146.205 345.402,147.038 339.5,146.5C 337.901,146.768 336.568,146.434 335.5,145.5C 333.786,144.262 331.786,143.595 329.5,143.5C 328.486,142.326 327.153,141.66 325.5,141.5C 324.508,141.672 323.842,141.338 323.5,140.5C 323.027,139.094 322.027,138.427 320.5,138.5C 317.835,135.665 315.335,132.665 313,129.5C 312.251,128.365 312.417,127.365 313.5,126.5C 318.273,129.952 323.273,132.952 328.5,135.5C 330.845,138.075 333.845,139.075 337.5,138.5C 337.918,139.222 338.584,139.722 339.5,140C 342.817,140.498 346.15,140.665 349.5,140.5C 351.795,139.864 353.461,138.531 354.5,136.5C 356.426,135.758 358.259,134.758 360,133.5C 366.851,125.394 369.351,116.06 367.5,105.5 Z"/></g>
<g><path style="opacity:0.11" fill="#72d0b5" d="M 178.5,115.5 C 182.078,115.549 185.411,116.215 188.5,117.5C 184.84,117.841 181.507,117.175 178.5,115.5 Z"/></g>
<g><path style="opacity:0.153" fill="#79d5be" d="M 188.5,117.5 C 193.456,118.145 197.789,120.145 201.5,123.5C 196.978,121.736 192.645,119.736 188.5,117.5 Z"/></g>
<g><path style="opacity:0.42" fill="#83d6c2" d="M 233.5,119.5 C 233.027,120.906 232.027,121.573 230.5,121.5C 230.973,120.094 231.973,119.427 233.5,119.5 Z"/></g>
<g><path style="opacity:0.235" fill="#7fd0bf" d="M 371.5,109.5 C 371.833,109.5 372.167,109.5 372.5,109.5C 372.335,112.85 372.502,116.183 373,119.5C 375.687,120.582 377.854,122.249 379.5,124.5C 376.886,123.193 374.22,121.86 371.5,120.5C 371.091,116.93 371.091,113.264 371.5,109.5 Z"/></g>
<g><path style="opacity:0.275" fill="#81d6c4" d="M 206.5,120.5 C 206.5,120.167 206.5,119.833 206.5,119.5C 210.354,120.93 214.021,122.597 217.5,124.5C 213.53,124.016 209.864,122.683 206.5,120.5 Z"/></g>
<g><path style="opacity:0.043" fill="#76d5bb" d="M 245.5,118.5 C 244.089,120.914 242.089,122.581 239.5,123.5C 240.911,121.086 242.911,119.419 245.5,118.5 Z"/></g>
<g><path style="opacity:1" fill="#f2fcf7" d="M 251.5,104.5 C 251.833,104.5 252.167,104.5 252.5,104.5C 253.833,104.5 255.167,104.5 256.5,104.5C 256.5,105.5 256.5,106.5 256.5,107.5C 253.215,110.118 250.215,113.118 247.5,116.5C 247.167,117.5 246.5,118.167 245.5,118.5C 242.911,119.419 240.911,121.086 239.5,123.5C 239.5,124.167 239.167,124.5 238.5,124.5C 235.911,125.419 233.911,127.086 232.5,129.5C 229.996,130.584 227.663,131.917 225.5,133.5C 221.374,133.428 217.374,132.761 213.5,131.5C 212.341,129.75 210.674,128.75 208.5,128.5C 207.139,126.473 205.473,124.806 203.5,123.5C 202.506,121.146 203.506,120.146 206.5,120.5C 209.864,122.683 213.53,124.016 217.5,124.5C 220.167,124.5 222.833,124.5 225.5,124.5C 227.674,124.25 229.341,123.25 230.5,121.5C 232.027,121.573 233.027,120.906 233.5,119.5C 237.704,117.967 241.037,115.3 243.5,111.5C 246.764,109.906 249.431,107.573 251.5,104.5 Z"/></g>
<g><path style="opacity:0.18" fill="#78d4bc" d="M 230.5,121.5 C 229.341,123.25 227.674,124.25 225.5,124.5C 226.659,122.75 228.326,121.75 230.5,121.5 Z"/></g>
<g><path style="opacity:0.204" fill="#7dd3be" d="M 201.5,123.5 C 202.167,123.5 202.833,123.5 203.5,123.5C 205.473,124.806 207.139,126.473 208.5,128.5C 205.883,127.214 203.55,125.547 201.5,123.5 Z"/></g>
<g><path style="opacity:0.004" fill="#70cfb3" d="M 131.5,124.5 C 131.5,125.833 130.833,126.5 129.5,126.5C 129.833,125.5 130.5,124.833 131.5,124.5 Z"/></g>
<g><path style="opacity:0.176" fill="#85dec5" d="M 296.5,128.5 C 296.5,127.5 296.5,126.5 296.5,125.5C 295.325,125.281 294.325,125.614 293.5,126.5C 292.388,128.419 291.054,130.086 289.5,131.5C 290.525,126.399 293.525,123.399 298.5,122.5C 298.741,124.898 298.074,126.898 296.5,128.5 Z"/></g>
<g><path style="opacity:0.027" fill="#75d2b8" d="M 238.5,124.5 C 237.089,126.914 235.089,128.581 232.5,129.5C 233.911,127.086 235.911,125.419 238.5,124.5 Z"/></g>
<g><path style="opacity:0.808" fill="#9fe0d3" d="M 381.5,126.5 C 383.587,127.585 384.92,129.251 385.5,131.5C 383.413,130.415 382.08,128.749 381.5,126.5 Z"/></g>
<g><path style="opacity:0.027" fill="#74cdb1" d="M 128.5,127.5 C 128.027,128.906 127.027,129.573 125.5,129.5C 125.973,128.094 126.973,127.427 128.5,127.5 Z"/></g>
<g><path style="opacity:0.137" fill="#75d4bc" d="M 208.5,128.5 C 210.674,128.75 212.341,129.75 213.5,131.5C 211.326,131.25 209.659,130.25 208.5,128.5 Z"/></g>
<g><path style="opacity:0.702" fill="#9fe2d1" d="M 124.5,117.5 C 124.392,119.783 123.559,121.783 122,123.5C 117.241,128.09 112.741,132.756 108.5,137.5C 108.709,136.078 109.209,134.745 110,133.5C 115.41,128.595 120.243,123.262 124.5,117.5 Z"/></g>
<g><path style="opacity:0.051" fill="#71cbb3" d="M 125.5,129.5 C 124.738,131.262 123.404,132.262 121.5,132.5C 122.262,130.738 123.596,129.738 125.5,129.5 Z"/></g>
<g><path style="opacity:0.18" fill="#73d3b9" d="M 328.5,135.5 C 323.273,132.952 318.273,129.952 313.5,126.5C 312.417,127.365 312.251,128.365 313,129.5C 315.335,132.665 317.835,135.665 320.5,138.5C 314.773,136.043 311.773,131.71 311.5,125.5C 313.655,125.372 315.655,125.872 317.5,127C 321.067,130.08 324.733,132.913 328.5,135.5 Z"/></g>
<g><path style="opacity:0.204" fill="#7cd8bb" d="M 232.5,129.5 C 230.948,132.112 228.614,133.445 225.5,133.5C 227.663,131.917 229.996,130.584 232.5,129.5 Z"/></g>
<g><path style="opacity:0.322" fill="#85d8c1" d="M 213.5,131.5 C 217.374,132.761 221.374,133.428 225.5,133.5C 221.247,135.668 217.247,135.001 213.5,131.5 Z"/></g>
<g><path style="opacity:0.267" fill="#87d8c4" d="M 289.5,131.5 C 286.187,139.984 280.521,146.484 272.5,151C 266.336,151.898 260.336,151.398 254.5,149.5C 254.56,148.957 254.893,148.624 255.5,148.5C 259.808,149.232 264.141,149.898 268.5,150.5C 270.942,149.964 273.275,149.131 275.5,148C 280.541,142.707 285.207,137.207 289.5,131.5 Z"/></g>
<g><path style="opacity:0.251" fill="#78cfbd" d="M 385.5,131.5 C 386.906,131.973 387.573,132.973 387.5,134.5C 386.833,134.167 386.167,133.833 385.5,133.5C 385.5,132.833 385.5,132.167 385.5,131.5 Z"/></g>
<g><path style="opacity:0.161" fill="#82d3bc" d="M 121.5,132.5 C 120.833,133.833 119.833,134.833 118.5,135.5C 118.5,133.5 119.5,132.5 121.5,132.5 Z"/></g>
<g><path style="opacity:0.306" fill="#83d3bf" d="M 296.5,128.5 C 295.674,131.485 294.341,134.151 292.5,136.5C 292.794,133.246 294.127,130.579 296.5,128.5 Z"/></g>
<g><path style="opacity:0.212" fill="#82d8c5" d="M 328.5,135.5 C 331.67,136.265 334.67,137.265 337.5,138.5C 333.845,139.075 330.845,138.075 328.5,135.5 Z"/></g>
<g><path style="opacity:0.227" fill="#7bd7bd" d="M 320.5,138.5 C 322.027,138.427 323.027,139.094 323.5,140.5C 321.973,140.573 320.973,139.906 320.5,138.5 Z"/></g>
<g><path style="opacity:0.246" fill="#89d6c0" d="M 337.5,138.5 C 341.833,139.833 346.167,139.833 350.5,138.5C 350.167,139.167 349.833,139.833 349.5,140.5C 346.15,140.665 342.817,140.498 339.5,140C 338.584,139.722 337.918,139.222 337.5,138.5 Z"/></g>
<g><path style="opacity:0.945" fill="#c6f0e6" d="M 354.5,136.5 C 353.461,138.531 351.795,139.864 349.5,140.5C 349.833,139.833 350.167,139.167 350.5,138.5C 351.514,137.326 352.847,136.66 354.5,136.5 Z"/></g>
<g><path style="opacity:0.239" fill="#7fcdb8" d="M 387.5,134.5 C 389.04,136.838 389.706,139.505 389.5,142.5C 387.96,140.162 387.294,137.495 387.5,134.5 Z"/></g>
<g><path style="opacity:0.149" fill="#77d8bb" d="M 325.5,141.5 C 327.153,141.66 328.486,142.326 329.5,143.5C 327.62,143.771 326.287,143.104 325.5,141.5 Z"/></g>
<g><path style="opacity:0.306" fill="#86d3c0" d="M 291.5,138.5 C 290.005,144.161 287.005,148.828 282.5,152.5C 285.503,147.825 288.503,143.159 291.5,138.5 Z"/></g>
<g><path style="opacity:0.031" fill="#73d5b6" d="M 329.5,143.5 C 331.786,143.595 333.786,144.262 335.5,145.5C 333.102,145.741 331.102,145.074 329.5,143.5 Z"/></g>
<g><path style="opacity:0.161" fill="#7eccb9" d="M 117.5,136.5 C 115.299,142.72 114.965,149.054 116.5,155.5C 115.778,155.082 115.278,154.416 115,153.5C 114.333,148.833 114.333,144.167 115,139.5C 115.377,138.058 116.21,137.058 117.5,136.5 Z"/></g>
<g><path style="opacity:0.329" fill="#85d7c2" d="M 107.5,139.5 C 107.337,141.857 107.503,144.19 108,146.5C 110.056,149.944 111.556,153.611 112.5,157.5C 110.276,162.394 106.942,166.394 102.5,169.5C 104.759,166.062 107.259,162.729 110,159.5C 110.805,155.091 109.805,151.091 107,147.5C 106.199,144.633 106.366,141.966 107.5,139.5 Z"/></g>
<g><path style="opacity:0.392" fill="#81dcc2" d="M 252.5,149.5 C 251.876,151.754 250.543,153.421 248.5,154.5C 249.072,152.745 249.906,151.078 251,149.5C 251.69,148.262 252.19,148.262 252.5,149.5 Z"/></g>
<g><path style="opacity:1" fill="#edfaf2" d="M 296.5,128.5 C 294.127,130.579 292.794,133.246 292.5,136.5C 292.672,137.492 292.338,138.158 291.5,138.5C 288.503,143.159 285.503,147.825 282.5,152.5C 280.973,152.427 279.973,153.094 279.5,154.5C 278.4,155.558 277.066,156.392 275.5,157C 269.319,157.819 263.319,157.653 257.5,156.5C 255.275,155.668 253.942,156.668 253.5,159.5C 251.413,160.585 250.08,162.251 249.5,164.5C 248.5,166.167 247.167,167.5 245.5,168.5C 243.973,168.427 242.973,169.094 242.5,170.5C 239.053,172.09 235.387,173.09 231.5,173.5C 226.821,173.666 222.155,173.499 217.5,173C 220.365,172.817 223.031,172.317 225.5,171.5C 236.286,170.046 243.953,164.38 248.5,154.5C 250.543,153.421 251.876,151.754 252.5,149.5C 253.167,149.5 253.833,149.5 254.5,149.5C 260.336,151.398 266.336,151.898 272.5,151C 280.521,146.484 286.187,139.984 289.5,131.5C 291.054,130.086 292.388,128.419 293.5,126.5C 294.325,125.614 295.325,125.281 296.5,125.5C 296.5,126.5 296.5,127.5 296.5,128.5 Z"/></g>
<g><path style="opacity:0.059" fill="#75ceb6" d="M 282.5,152.5 C 282.027,153.906 281.027,154.573 279.5,154.5C 279.973,153.094 280.973,152.427 282.5,152.5 Z"/></g>
<g><path style="opacity:0.035" fill="#6fc7b1" d="M 257.5,156.5 C 256.167,157.5 254.833,158.5 253.5,159.5C 253.942,156.668 255.275,155.668 257.5,156.5 Z"/></g>
<g><path style="opacity:0.204" fill="#75d8bc" d="M 197.5,160.5 C 197.167,160.5 196.833,160.5 196.5,160.5C 194.463,158.47 192.13,156.804 189.5,155.5C 189.167,155.833 188.833,156.167 188.5,156.5C 190.603,160.106 193.269,163.273 196.5,166C 201.396,169.122 206.396,171.955 211.5,174.5C 201.327,171.843 193.161,166.177 187,157.5C 186.51,156.207 186.343,154.873 186.5,153.5C 191.263,154.052 194.93,156.385 197.5,160.5 Z"/></g>
<g><path style="opacity:0.435" fill="#8bd8c3" d="M 381.5,133.5 C 381.973,145.761 382.14,158.094 382,170.5C 386.144,179.2 387.144,188.2 385,197.5C 384.617,198.056 384.117,198.389 383.5,198.5C 385.316,189.25 384.482,180.25 381,171.5C 380.261,161.981 380.427,152.481 381.5,143C 381.96,135.745 378.96,130.579 372.5,127.5C 369.029,134.584 364.029,140.417 357.5,145C 351.544,147.573 345.544,148.073 339.5,146.5C 345.402,147.038 351.068,146.205 356.5,144C 363.297,139.21 368.297,133.044 371.5,125.5C 375.768,127.112 379.102,129.779 381.5,133.5 Z"/></g>
<g><path style="opacity:0.169" fill="#88d9c2" d="M 253.5,159.5 C 252.92,161.749 251.587,163.415 249.5,164.5C 250.08,162.251 251.413,160.585 253.5,159.5 Z"/></g>
<g><path style="opacity:0.271" fill="#83ccba" d="M 389.5,142.5 C 390.362,145.823 391.028,149.323 391.5,153C 389.507,159.444 389.174,165.944 390.5,172.5C 389.155,169.949 388.489,167.116 388.5,164C 389.322,156.856 389.656,149.69 389.5,142.5 Z"/></g>
<g><path style="opacity:0.047" fill="#7bcdb7" d="M 116.5,155.5 C 117.622,157.288 117.789,159.288 117,161.5C 114.473,165.896 111.973,170.229 109.5,174.5C 109.343,173.127 109.51,171.793 110,170.5C 113.636,166.077 115.803,161.077 116.5,155.5 Z"/></g>
<g><path style="opacity:0.302" fill="#87d7c3" d="M 248.5,154.5 C 243.953,164.38 236.286,170.046 225.5,171.5C 214.323,171.556 204.656,167.889 196.5,160.5C 196.833,160.5 197.167,160.5 197.5,160.5C 206.31,167.37 216.31,170.537 227.5,170C 230.993,169.058 234.326,167.725 237.5,166C 241.398,162.271 245.065,158.438 248.5,154.5 Z"/></g>
<g><path style="opacity:1" fill="#e5fbe8" d="M 196.5,160.5 C 204.656,167.889 214.323,171.556 225.5,171.5C 223.031,172.317 220.365,172.817 217.5,173C 222.155,173.499 226.821,173.666 231.5,173.5C 225.021,174.491 218.354,174.824 211.5,174.5C 206.396,171.955 201.396,169.122 196.5,166C 193.269,163.273 190.603,160.106 188.5,156.5C 188.833,156.167 189.167,155.833 189.5,155.5C 192.13,156.804 194.463,158.47 196.5,160.5 Z"/></g>
<g><path style="opacity:0.027" fill="#73d3b9" d="M 245.5,168.5 C 245.027,169.906 244.027,170.573 242.5,170.5C 242.973,169.094 243.973,168.427 245.5,168.5 Z"/></g>
<g><path style="opacity:0.184" fill="#78d4bc" d="M 102.5,169.5 C 102.573,171.027 101.906,172.027 100.5,172.5C 100.427,170.973 101.094,169.973 102.5,169.5 Z"/></g>
<g><path style="opacity:0.337" fill="#84d8c0" d="M 242.5,170.5 C 240.035,172.837 237.035,174.337 233.5,175C 225.988,175.822 218.655,175.655 211.5,174.5C 218.354,174.824 225.021,174.491 231.5,173.5C 235.387,173.09 239.053,172.09 242.5,170.5 Z"/></g>
<g><path style="opacity:0.122" fill="#76d0bb" d="M 100.5,172.5 C 100.405,174.786 99.7384,176.786 98.5,178.5C 98.2594,176.102 98.9261,174.102 100.5,172.5 Z"/></g>
<g><path style="opacity:0.42" fill="#88d7c4" d="M 159.5,176.5 C 155.414,178.752 151.081,180.418 146.5,181.5C 150.361,178.875 154.694,177.208 159.5,176.5 Z"/></g>
<g><path style="opacity:0.012" fill="#79d7bf" d="M 155.5,184.5 C 160.802,181.835 166.135,179.168 171.5,176.5C 167.599,176.142 163.599,176.142 159.5,176.5C 163.575,174.783 167.908,174.283 172.5,175C 173.022,175.561 173.355,176.228 173.5,177C 171.874,178.819 169.874,180.152 167.5,181C 163.453,182.072 159.453,183.239 155.5,184.5 Z"/></g>
<g><path style="opacity:0.408" fill="#8cddc7" d="M 146.5,181.5 C 144.704,183.9 142.37,185.567 139.5,186.5C 141.296,184.1 143.63,182.433 146.5,181.5 Z"/></g>
<g><path style="opacity:0.208" fill="#7cd6bb" d="M 155.5,184.5 C 153.819,186.008 151.819,187.008 149.5,187.5C 150.911,185.461 152.911,184.461 155.5,184.5 Z"/></g>
<g><path style="opacity:0.525" fill="#8cd0c1" d="M 391.5,177.5 C 392.357,181.66 393.024,185.993 393.5,190.5C 393.138,195.116 392.138,199.449 390.5,203.5C 391.377,194.867 391.711,186.2 391.5,177.5 Z"/></g>
<g><path style="opacity:0.337" fill="#81d7c5" d="M 196.5,185.5 C 198.262,186.262 199.262,187.596 199.5,189.5C 197.738,188.738 196.738,187.404 196.5,185.5 Z"/></g>
<g><path style="opacity:0.298" fill="#88dac4" d="M 149.5,187.5 C 147.853,189.326 145.853,190.66 143.5,191.5C 143.5,191.167 143.5,190.833 143.5,190.5C 145.216,188.975 147.216,187.975 149.5,187.5 Z"/></g>
<g><path style="opacity:0.145" fill="#7ad1bf" d="M 108.5,177.5 C 108.15,183.004 108.817,188.337 110.5,193.5C 109.442,192.4 108.608,191.066 108,189.5C 107.188,185.311 107.355,181.311 108.5,177.5 Z"/></g>
<g><path style="opacity:0.439" fill="#84ddc4" d="M 139.5,186.5 C 133.909,192.178 128.909,198.345 124.5,205C 122.86,205.348 121.527,204.848 120.5,203.5C 121.873,203.657 123.207,203.49 124.5,203C 128.026,196.082 133.026,190.582 139.5,186.5 Z"/></g>
<g><path style="opacity:0.055" fill="#7dd7bd" d="M 196.5,185.5 C 195.185,184.524 193.852,183.524 192.5,182.5C 192.167,183.167 191.833,183.833 191.5,184.5C 193.128,188.345 194.128,192.345 194.5,196.5C 191.725,191.508 190.058,186.341 189.5,181C 193.138,180.485 195.471,181.985 196.5,185.5 Z"/></g>
<g><path style="opacity:0.997" fill="#cbf1e5" d="M 143.5,190.5 C 143.5,190.833 143.5,191.167 143.5,191.5C 141.5,194.167 139.167,196.5 136.5,198.5C 136.34,196.801 136.506,195.134 137,193.5C 137.333,193.833 137.667,194.167 138,194.5C 138.662,191.583 140.495,190.25 143.5,190.5 Z"/></g>
<g><path style="opacity:0.306" fill="#80d4c3" d="M 200.5,191.5 C 201.906,191.973 202.573,192.973 202.5,194.5C 201.094,194.027 200.427,193.027 200.5,191.5 Z"/></g>
<g><path style="opacity:0.298" fill="#80d6c8" d="M 110.5,193.5 C 111.906,193.973 112.573,194.973 112.5,196.5C 111.094,196.027 110.427,195.027 110.5,193.5 Z"/></g>
<g><path style="opacity:0.282" fill="#7cd4bf" d="M 98.5,178.5 C 97.9664,183.901 99.133,188.901 102,193.5C 105.002,197.334 108.169,201 111.5,204.5C 101.216,198.6 96.8827,189.933 98.5,178.5 Z"/></g>
<g><path style="opacity:0.42" fill="#88d8ca" d="M 202.5,194.5 C 204.262,195.262 205.262,196.596 205.5,198.5C 203.738,197.738 202.738,196.404 202.5,194.5 Z"/></g>
<g><path style="opacity:0.627" fill="#88dacc" d="M 112.5,196.5 C 115.192,198.862 117.859,201.196 120.5,203.5C 116.571,202.569 113.905,200.236 112.5,196.5 Z"/></g>
<g><path style="opacity:0.016" fill="#79d2bc" d="M 136.5,198.5 C 136.262,200.404 135.262,201.738 133.5,202.5C 133.738,200.596 134.738,199.262 136.5,198.5 Z"/></g>
<g><path style="opacity:0.302" fill="#88dbc4" d="M 194.5,196.5 C 197.012,200.866 199.012,205.533 200.5,210.5C 197.162,206.508 195.162,201.842 194.5,196.5 Z"/></g>
<g><path style="opacity:0.075" fill="#73d0b7" d="M 306.5,199.5 C 304.901,199.232 303.568,199.566 302.5,200.5C 300.5,201.167 298.5,201.833 296.5,202.5C 299.197,199.043 302.53,198.043 306.5,199.5 Z"/></g>
<g><path style="opacity:0.027" fill="#7ad1bb" d="M 232.5,200.5 C 237.448,198.903 242.114,199.569 246.5,202.5C 241.985,201.018 237.319,200.352 232.5,200.5 Z"/></g>
<g><path style="opacity:1" fill="#f7fcf5" d="M 196.5,185.5 C 196.738,187.404 197.738,188.738 199.5,189.5C 200.338,189.842 200.672,190.508 200.5,191.5C 200.427,193.027 201.094,194.027 202.5,194.5C 202.738,196.404 203.738,197.738 205.5,198.5C 207.402,203.232 210.902,205.899 216,206.5C 222.168,205.921 227.668,203.921 232.5,200.5C 237.319,200.352 241.985,201.018 246.5,202.5C 247.659,204.25 249.326,205.25 251.5,205.5C 252.167,205.5 252.5,205.833 252.5,206.5C 252.973,207.906 253.973,208.573 255.5,208.5C 256.948,211.264 259.281,212.931 262.5,213.5C 264.033,215.245 266.033,216.245 268.5,216.5C 271.321,217.417 273.654,219.084 275.5,221.5C 274.942,222.79 273.942,223.623 272.5,224C 269.854,224.497 267.187,224.664 264.5,224.5C 263.738,222.738 262.404,221.738 260.5,221.5C 259.5,219.833 258.167,218.5 256.5,217.5C 255.486,216.326 254.153,215.66 252.5,215.5C 251.341,213.75 249.674,212.75 247.5,212.5C 245.248,206.418 240.914,203.918 234.5,205C 230.637,206.181 227.137,208.014 224,210.5C 223.023,213.817 223.856,216.484 226.5,218.5C 228.497,223.012 231.497,226.845 235.5,230C 237.167,230.667 238.833,230.667 240.5,230C 243.828,227.514 246.161,224.348 247.5,220.5C 248.452,222.045 248.785,223.712 248.5,225.5C 246.217,229.205 243.55,232.705 240.5,236C 238.203,236.018 235.869,235.851 233.5,235.5C 230.138,231.808 226.805,228.141 223.5,224.5C 223.539,221.911 222.539,219.911 220.5,218.5C 220.771,216.62 220.104,215.287 218.5,214.5C 217.167,213.167 215.833,213.167 214.5,214.5C 213.9,215.9 212.9,216.9 211.5,217.5C 207.636,215.406 203.969,213.072 200.5,210.5C 199.012,205.533 197.012,200.866 194.5,196.5C 194.128,192.345 193.128,188.345 191.5,184.5C 191.833,183.833 192.167,183.167 192.5,182.5C 193.852,183.524 195.185,184.524 196.5,185.5 Z M 226.5,218.5 C 225.365,216.255 224.865,213.922 225,211.5C 228.691,208.651 232.858,206.651 237.5,205.5C 247.116,209.382 249.283,215.716 244,224.5C 242.093,228.01 239.26,229.176 235.5,228C 232.268,224.938 229.268,221.771 226.5,218.5 Z"/></g>
<g><path style="opacity:0.216" fill="#7cd1bc" d="M 383.5,199.5 C 383.25,201.674 382.25,203.341 380.5,204.5C 380.75,202.326 381.75,200.659 383.5,199.5 Z"/></g>
<g><path style="opacity:0.204" fill="#76d3be" d="M 246.5,202.5 C 248.674,202.75 250.341,203.75 251.5,205.5C 249.326,205.25 247.659,204.25 246.5,202.5 Z"/></g>
<g><path style="opacity:0.369" fill="#8fe9d5" d="M 302.5,200.5 C 303.568,199.566 304.901,199.232 306.5,199.5C 307.803,201.757 307.136,203.59 304.5,205C 293.353,213.322 281.52,220.489 269,226.5C 267.124,226.475 265.624,225.809 264.5,224.5C 267.187,224.664 269.854,224.497 272.5,224C 273.942,223.623 274.942,222.79 275.5,221.5C 286.303,216.029 296.303,209.362 305.5,201.5C 304.675,200.614 303.675,200.281 302.5,200.5 Z"/></g>
<g><path style="opacity:0.212" fill="#88d9c6" d="M 205.5,198.5 C 207.63,200.127 209.63,201.96 211.5,204C 213.167,204.167 214.833,204.333 216.5,204.5C 222.002,203.776 227.336,202.442 232.5,200.5C 227.668,203.921 222.168,205.921 216,206.5C 210.902,205.899 207.402,203.232 205.5,198.5 Z"/></g>
<g><path style="opacity:0.22" fill="#7dd6bd" d="M 111.5,204.5 C 113.027,204.427 114.027,205.094 114.5,206.5C 112.973,206.573 111.973,205.906 111.5,204.5 Z"/></g>
<g><path style="opacity:0.078" fill="#87dfc9" d="M 247.5,212.5 C 249.515,216.906 250.515,221.572 250.5,226.5C 249.833,226.167 249.167,225.833 248.5,225.5C 248.785,223.712 248.452,222.045 247.5,220.5C 246.161,224.348 243.828,227.514 240.5,230C 238.833,230.667 237.167,230.667 235.5,230C 231.497,226.845 228.497,223.012 226.5,218.5C 223.856,216.484 223.023,213.817 224,210.5C 227.137,208.014 230.637,206.181 234.5,205C 240.914,203.918 245.248,206.418 247.5,212.5 Z M 226.5,218.5 C 229.268,221.771 232.268,224.938 235.5,228C 239.26,229.176 242.093,228.01 244,224.5C 249.283,215.716 247.116,209.382 237.5,205.5C 232.858,206.651 228.691,208.651 225,211.5C 224.865,213.922 225.365,216.255 226.5,218.5 Z"/></g>
<g><path style="opacity:0.035" fill="#72d1bb" d="M 252.5,206.5 C 254.027,206.427 255.027,207.094 255.5,208.5C 253.973,208.573 252.973,207.906 252.5,206.5 Z"/></g>
<g><path style="opacity:1" fill="#f8fdfa" d="M 385.5,133.5 C 386.167,133.833 386.833,134.167 387.5,134.5C 387.294,137.495 387.96,140.162 389.5,142.5C 389.656,149.69 389.322,156.856 388.5,164C 388.489,167.116 389.155,169.949 390.5,172.5C 391.301,174.042 391.634,175.708 391.5,177.5C 391.711,186.2 391.377,194.867 390.5,203.5C 387.582,208.333 384.916,213.333 382.5,218.5C 379.421,221.65 377.087,225.317 375.5,229.5C 373.833,231.5 372.167,233.5 370.5,235.5C 370.225,233.158 369.392,233.158 368,235.5C 367.292,234.619 366.458,233.953 365.5,233.5C 365.5,232.5 365.5,231.5 365.5,230.5C 368.404,225.692 367.404,224.692 362.5,227.5C 363.252,225.9 364.252,224.4 365.5,223C 364.552,222.517 363.552,222.351 362.5,222.5C 363.984,220.926 365.651,219.593 367.5,218.5C 373.897,215.769 378.23,211.103 380.5,204.5C 382.25,203.341 383.25,201.674 383.5,199.5C 383.5,199.167 383.5,198.833 383.5,198.5C 384.117,198.389 384.617,198.056 385,197.5C 387.144,188.2 386.144,179.2 382,170.5C 382.14,158.094 381.973,145.761 381.5,133.5C 381.351,132.448 381.517,131.448 382,130.5C 382.72,132.056 383.887,133.056 385.5,133.5 Z"/></g>
<g><path style="opacity:0.192" fill="#7cd6bb" d="M 114.5,206.5 C 116.027,206.427 117.027,207.094 117.5,208.5C 115.973,208.573 114.973,207.906 114.5,206.5 Z"/></g>
<g><path style="opacity:0.035" fill="#77d2be" d="M 328.5,208.5 C 330.404,208.738 331.738,209.738 332.5,211.5C 330.596,211.262 329.262,210.262 328.5,208.5 Z"/></g>
<g><path style="opacity:0.129" fill="#79d3bd" d="M 117.5,208.5 C 119.553,208.402 121.22,209.069 122.5,210.5C 120.447,210.598 118.78,209.931 117.5,208.5 Z"/></g>
<g><path style="opacity:0.561" fill="#86e0c6" d="M 184.5,208.5 C 183.038,207.542 181.705,206.376 180.5,205C 179.216,204.316 178.049,204.483 177,205.5C 176.393,209.537 176.56,213.537 177.5,217.5C 174.6,213.486 174.1,209.153 176,204.5C 177.588,202.032 179.422,201.866 181.5,204C 183.141,205.129 184.141,206.629 184.5,208.5 Z"/></g>
<g><path style="opacity:1" fill="#f4fcec" d="M 302.5,200.5 C 303.675,200.281 304.675,200.614 305.5,201.5C 296.303,209.362 286.303,216.029 275.5,221.5C 273.654,219.084 271.321,217.417 268.5,216.5C 279.401,214.923 288.735,210.256 296.5,202.5C 298.5,201.833 300.5,201.167 302.5,200.5 Z"/></g>
<g><path style="opacity:0.024" fill="#77dbc4" d="M 328.5,208.5 C 326.545,207.677 324.545,207.51 322.5,208C 326.003,212.335 329.67,216.501 333.5,220.5C 330.437,218.949 327.771,216.782 325.5,214C 323.564,213.187 321.564,212.687 319.5,212.5C 320.109,209.003 318.943,206.337 316,204.5C 313.164,208.478 309.664,211.811 305.5,214.5C 307.927,210.895 310.593,207.395 313.5,204C 317.477,204.366 321.477,205.033 325.5,206C 326.942,206.377 327.942,207.21 328.5,208.5 Z"/></g>
<g><path style="opacity:0.271" fill="#85dac5" d="M 255.5,208.5 C 258.135,209.811 260.469,211.478 262.5,213.5C 259.281,212.931 256.948,211.264 255.5,208.5 Z"/></g>
<g><path style="opacity:0.169" fill="#7ad1bb" d="M 296.5,202.5 C 288.735,210.256 279.401,214.923 268.5,216.5C 266.033,216.245 264.033,215.245 262.5,213.5C 266.388,214.973 270.388,215.473 274.5,215C 282.051,211.063 289.384,206.896 296.5,202.5 Z"/></g>
<g><path style="opacity:0.043" fill="#74cfbc" d="M 332.5,211.5 C 334.027,211.427 335.027,212.094 335.5,213.5C 333.973,213.573 332.973,212.906 332.5,211.5 Z"/></g>
<g><path style="opacity:0.49" fill="#8fdbca" d="M 380.5,204.5 C 378.23,211.103 373.897,215.769 367.5,218.5C 372.54,214.461 376.873,209.794 380.5,204.5 Z"/></g>
<g><path style="opacity:0.231" fill="#78dbd5" d="M 218.5,214.5 C 217.5,214.5 216.5,214.5 215.5,214.5C 215.5,216.167 215.5,217.833 215.5,219.5C 214.549,218.081 214.216,216.415 214.5,214.5C 215.833,213.167 217.167,213.167 218.5,214.5 Z"/></g>
<g><path style="opacity:0.239" fill="#8ae4cd" d="M 184.5,208.5 C 189.727,213.221 195.393,217.388 201.5,221C 204.688,222.316 208.022,222.816 211.5,222.5C 211.649,221.448 211.483,220.448 211,219.5C 206.963,217.074 203.463,214.074 200.5,210.5C 203.969,213.072 207.636,215.406 211.5,217.5C 212.369,219.717 212.702,222.05 212.5,224.5C 200.429,223.724 191.096,218.391 184.5,208.5 Z"/></g>
<g><path style="opacity:0.027" fill="#86d6c7" d="M 335.5,213.5 C 337.754,214.124 339.421,215.457 340.5,217.5C 338.205,216.864 336.539,215.531 335.5,213.5 Z"/></g>
<g><path style="opacity:0.337" fill="#7ad7c2" d="M 305.5,214.5 C 304.415,216.587 302.749,217.92 300.5,218.5C 301.585,216.413 303.251,215.08 305.5,214.5 Z"/></g>
<g><path style="opacity:0.451" fill="#94eee3" d="M 218.5,214.5 C 220.104,215.287 220.771,216.62 220.5,218.5C 219.326,217.486 218.66,216.153 218.5,214.5 Z"/></g>
<g><path style="opacity:0.196" fill="#87cfbc" d="M 390.5,203.5 C 389.122,209.26 386.455,214.26 382.5,218.5C 384.916,213.333 387.582,208.333 390.5,203.5 Z"/></g>
<g><path style="opacity:0.233" fill="#6ed0b2" d="M 122.5,210.5 C 123.383,217.002 124.049,223.668 124.5,230.5C 123.732,229.737 123.232,228.737 123,227.5C 122.501,221.843 122.334,216.176 122.5,210.5 Z"/></g>
<g><path style="opacity:0.184" fill="#7fd0bc" d="M 132.5,204.5 C 128.44,211.906 127.774,219.573 130.5,227.5C 129.034,226.653 128.2,225.32 128,223.5C 127.333,219.5 127.333,215.5 128,211.5C 129.026,208.761 130.526,206.428 132.5,204.5 Z"/></g>
<g><path style="opacity:0.261" fill="#7dd8bd" d="M 169.5,219.5 C 168.518,218.859 167.518,218.193 166.5,217.5C 166.167,218.5 165.833,219.5 165.5,220.5C 166.63,225.486 167.63,230.486 168.5,235.5C 165.612,229.589 164.445,223.255 165,216.5C 167.552,215.513 169.052,216.513 169.5,219.5 Z"/></g>
<g><path style="opacity:0.4" fill="#8eead4" d="M 252.5,215.5 C 254.153,215.66 255.486,216.326 256.5,217.5C 255.5,217.5 254.5,217.5 253.5,217.5C 253.584,220.327 254.25,222.994 255.5,225.5C 254.21,224.942 253.377,223.942 253,222.5C 252.503,220.19 252.337,217.857 252.5,215.5 Z"/></g>
<g><path style="opacity:0.016" fill="#76ebd8" d="M 256.5,217.5 C 258.167,218.5 259.5,219.833 260.5,221.5C 258.167,221.167 256.833,219.833 256.5,217.5 Z"/></g>
<g><path style="opacity:0.082" fill="#7bd7c4" d="M 340.5,217.5 C 344.793,220.483 349.459,222.483 354.5,223.5C 348.592,224.209 343.925,222.209 340.5,217.5 Z"/></g>
<g><path style="opacity:0.169" fill="#83cdbc" d="M 367.5,218.5 C 365.651,219.593 363.984,220.926 362.5,222.5C 360.139,222.674 357.806,223.007 355.5,223.5C 359.456,221.838 363.456,220.171 367.5,218.5 Z"/></g>
<g><path style="opacity:1" fill="#f1fcef" d="M 184.5,208.5 C 191.096,218.391 200.429,223.724 212.5,224.5C 212.702,222.05 212.369,219.717 211.5,217.5C 212.9,216.9 213.9,215.9 214.5,214.5C 214.216,216.415 214.549,218.081 215.5,219.5C 215.415,222.649 216.415,225.316 218.5,227.5C 218.631,228.376 218.298,229.043 217.5,229.5C 214.766,227.629 211.766,226.629 208.5,226.5C 203.967,226.283 199.634,225.283 195.5,223.5C 189.97,220.157 184.803,216.157 180,211.5C 183.048,218.024 188.214,222.358 195.5,224.5C 199.277,226.722 203.277,228.389 207.5,229.5C 209.579,231.873 212.246,233.206 215.5,233.5C 215.5,234.167 215.833,234.5 216.5,234.5C 216.881,235.931 217.881,236.764 219.5,237C 216.606,238.567 213.606,238.733 210.5,237.5C 198.148,233.153 187.148,226.486 177.5,217.5C 176.56,213.537 176.393,209.537 177,205.5C 178.049,204.483 179.216,204.316 180.5,205C 181.705,206.376 183.038,207.542 184.5,208.5 Z"/></g>
<g><path style="opacity:0.286" fill="#96d5d1" d="M 195.5,223.5 C 195.5,223.833 195.5,224.167 195.5,224.5C 188.214,222.358 183.048,218.024 180,211.5C 184.803,216.157 189.97,220.157 195.5,223.5 Z"/></g>
<g><path style="opacity:0.157" fill="#80dfc7" d="M 300.5,218.5 C 298.518,221.137 295.852,222.47 292.5,222.5C 294.849,220.659 297.515,219.326 300.5,218.5 Z"/></g>
<g><path style="opacity:0.094" fill="#83d4bf" d="M 382.5,218.5 C 380.913,222.683 378.579,226.35 375.5,229.5C 377.087,225.317 379.421,221.65 382.5,218.5 Z"/></g>
<g><path style="opacity:0.443" fill="#93eddf" d="M 220.5,218.5 C 222.539,219.911 223.539,221.911 223.5,224.5C 221.992,222.819 220.992,220.819 220.5,218.5 Z"/></g>
<g><path style="opacity:0.655" fill="#97eedc" d="M 260.5,221.5 C 262.404,221.738 263.738,222.738 264.5,224.5C 262.596,224.262 261.262,223.262 260.5,221.5 Z"/></g>
<g><path style="opacity:1" fill="#f3fcf3" d="M 328.5,208.5 C 329.262,210.262 330.596,211.262 332.5,211.5C 332.973,212.906 333.973,213.573 335.5,213.5C 336.539,215.531 338.205,216.864 340.5,217.5C 343.925,222.209 348.592,224.209 354.5,223.5C 354.833,223.5 355.167,223.5 355.5,223.5C 357.806,223.007 360.139,222.674 362.5,222.5C 363.552,222.351 364.552,222.517 365.5,223C 364.252,224.4 363.252,225.9 362.5,227.5C 358.519,229.881 354.186,230.881 349.5,230.5C 348.486,229.326 347.153,228.66 345.5,228.5C 341.852,225.34 337.852,222.673 333.5,220.5C 329.67,216.501 326.003,212.335 322.5,208C 324.545,207.51 326.545,207.677 328.5,208.5 Z"/></g>
<g><path style="opacity:0.894" fill="#a8f5e5" d="M 215.5,219.5 C 217.341,221.849 218.674,224.515 219.5,227.5C 219.167,227.5 218.833,227.5 218.5,227.5C 216.415,225.316 215.415,222.649 215.5,219.5 Z"/></g>
<g><path style="opacity:0.161" fill="#7edac3" d="M 333.5,220.5 C 337.852,222.673 341.852,225.34 345.5,228.5C 340.803,226.822 336.803,224.156 333.5,220.5 Z"/></g>
<g><path style="opacity:0.584" fill="#9ae2d1" d="M 169.5,220.5 C 171.403,223.53 172.737,226.863 173.5,230.5C 171.103,227.691 169.77,224.358 169.5,220.5 Z"/></g>
<g><path style="opacity:0.208" fill="#84e3d0" d="M 223.5,224.5 C 226.805,228.141 230.138,231.808 233.5,235.5C 228.775,233.108 225.442,229.441 223.5,224.5 Z"/></g>
<g><path style="opacity:0.482" fill="#83e9d7" d="M 292.5,222.5 C 285.498,226.508 277.831,228.842 269.5,229.5C 277.101,227.344 284.767,225.011 292.5,222.5 Z"/></g>
<g><path style="opacity:0.149" fill="#71d1d8" d="M 195.5,224.5 C 195.5,224.167 195.5,223.833 195.5,223.5C 199.634,225.283 203.967,226.283 208.5,226.5C 208.5,226.833 208.5,227.167 208.5,227.5C 205.075,227.367 204.742,228.033 207.5,229.5C 203.277,228.389 199.277,226.722 195.5,224.5 Z"/></g>
<g><path style="opacity:1" fill="#e3faeb" d="M 319.5,212.5 C 319.5,212.833 319.5,213.167 319.5,213.5C 317.388,218.699 314.055,223.032 309.5,226.5C 308.082,224.692 306.082,224.025 303.5,224.5C 305.139,223.527 306.473,222.194 307.5,220.5C 308.167,220.5 308.833,220.5 309.5,220.5C 312.167,219.833 313.833,218.167 314.5,215.5C 314.5,214.833 314.5,214.167 314.5,213.5C 313.833,213.833 313.167,214.167 312.5,214.5C 311.167,215.167 310.167,216.167 309.5,217.5C 309.167,218.5 308.5,219.167 307.5,219.5C 305.011,219.241 303.344,220.241 302.5,222.5C 297.693,225.9 292.36,228.234 286.5,229.5C 282.956,229.132 279.956,230.132 277.5,232.5C 275.958,233.301 274.292,233.634 272.5,233.5C 270.784,233.629 269.117,233.962 267.5,234.5C 268.589,232.883 270.256,232.05 272.5,232C 268.312,231.824 264.312,231.324 260.5,230.5C 263.713,230.81 266.713,230.477 269.5,229.5C 277.831,228.842 285.498,226.508 292.5,222.5C 295.852,222.47 298.518,221.137 300.5,218.5C 302.749,217.92 304.415,216.587 305.5,214.5C 309.664,211.811 313.164,208.478 316,204.5C 318.943,206.337 320.109,209.003 319.5,212.5 Z M 309.5,217.5 C 310.167,217.5 310.833,217.5 311.5,217.5C 310.833,218.5 310.167,219.5 309.5,220.5C 308.833,220.5 308.167,220.5 307.5,220.5C 307.5,220.167 307.5,219.833 307.5,219.5C 308.5,219.167 309.167,218.5 309.5,217.5 Z M 314.5,213.5 C 314.5,214.167 314.5,214.833 314.5,215.5C 313.833,215.833 313.167,216.167 312.5,216.5C 312.5,215.833 312.5,215.167 312.5,214.5C 313.167,214.167 313.833,213.833 314.5,213.5 Z"/></g>
<g><path style="opacity:0.859" fill="#9fdfd9" d="M 307.5,219.5 C 307.5,219.833 307.5,220.167 307.5,220.5C 305.833,221.167 304.167,221.833 302.5,222.5C 303.344,220.241 305.011,219.241 307.5,219.5 Z"/></g>
<g><path style="opacity:0.725" fill="#a7eeeb" d="M 314.5,215.5 C 313.833,218.167 312.167,219.833 309.5,220.5C 310.167,219.5 310.833,218.5 311.5,217.5C 312.167,217.5 312.5,217.167 312.5,216.5C 313.167,216.167 313.833,215.833 314.5,215.5 Z"/></g>
<g><path style="opacity:0.016" fill="#59bbc1" d="M 312.5,214.5 C 312.5,215.167 312.5,215.833 312.5,216.5C 311.833,216.5 311.5,216.833 311.5,217.5C 310.833,217.5 310.167,217.5 309.5,217.5C 310.167,216.167 311.167,215.167 312.5,214.5 Z"/></g>
<g><path style="opacity:1" fill="#f2fdf2" d="M 303.5,224.5 C 306.082,224.025 308.082,224.692 309.5,226.5C 301.136,232.741 291.802,237.075 281.5,239.5C 281.217,238.711 280.717,238.044 280,237.5C 277.712,237.737 275.212,237.737 272.5,237.5C 273.167,236.833 273.833,236.167 274.5,235.5C 274.833,235.5 275.167,235.5 275.5,235.5C 278.152,235.59 280.485,234.924 282.5,233.5C 283.93,232.463 285.597,231.796 287.5,231.5C 291.554,231.493 294.887,230.16 297.5,227.5C 299.181,225.992 301.181,224.992 303.5,224.5 Z"/></g>
<g><path style="opacity:0.976" fill="#bef2ef" d="M 297.5,227.5 C 294.887,230.16 291.554,231.493 287.5,231.5C 290.678,229.991 294.011,228.658 297.5,227.5 Z"/></g>
<g><path style="opacity:0.882" fill="#caf9ec" d="M 208.5,227.5 C 208.5,227.167 208.5,226.833 208.5,226.5C 211.766,226.629 214.766,227.629 217.5,229.5C 218.298,229.043 218.631,228.376 218.5,227.5C 218.833,227.5 219.167,227.5 219.5,227.5C 219.703,229.044 220.37,230.378 221.5,231.5C 221.043,232.298 220.376,232.631 219.5,232.5C 219.027,231.094 218.027,230.427 216.5,230.5C 213.828,229.499 211.162,228.499 208.5,227.5 Z"/></g>
<g><path style="opacity:0.041" fill="#78eada" d="M 255.5,225.5 C 259.418,229.063 264.085,230.396 269.5,229.5C 266.713,230.477 263.713,230.81 260.5,230.5C 257.833,229.833 256.167,228.167 255.5,225.5 Z"/></g>
<g><path style="opacity:0.157" fill="#79dac4" d="M 345.5,228.5 C 347.153,228.66 348.486,229.326 349.5,230.5C 347.62,230.771 346.287,230.104 345.5,228.5 Z"/></g>
<g><path style="opacity:0.004" fill="#78d3c3" d="M 365.5,230.5 C 365.649,229.448 365.483,228.448 365,227.5C 360.171,231.156 355.005,232.156 349.5,230.5C 354.186,230.881 358.519,229.881 362.5,227.5C 367.404,224.692 368.404,225.692 365.5,230.5 Z"/></g>
<g><path style="opacity:0.027" fill="#83d4c6" d="M 130.5,227.5 C 133.06,229.273 135.393,231.273 137.5,233.5C 134.112,232.652 131.779,230.652 130.5,227.5 Z"/></g>
<g><path style="opacity:1" fill="#f4fdee" d="M 247.5,212.5 C 249.674,212.75 251.341,213.75 252.5,215.5C 252.337,217.857 252.503,220.19 253,222.5C 253.377,223.942 254.21,224.942 255.5,225.5C 256.167,228.167 257.833,229.833 260.5,230.5C 264.312,231.324 268.312,231.824 272.5,232C 270.256,232.05 268.589,232.883 267.5,234.5C 263.901,235.64 260.234,236.14 256.5,236C 254.85,232.515 252.85,229.349 250.5,226.5C 250.515,221.572 249.515,216.906 247.5,212.5 Z"/></g>
<g><path style="opacity:0.196" fill="#85e4cd" d="M 319.5,213.5 C 320.043,213.56 320.376,213.893 320.5,214.5C 317.463,221.371 312.796,226.871 306.5,231C 298.566,235.304 290.233,238.47 281.5,240.5C 281.5,240.167 281.5,239.833 281.5,239.5C 291.802,237.075 301.136,232.741 309.5,226.5C 314.055,223.032 317.388,218.699 319.5,213.5 Z"/></g>
<g><path style="opacity:0.404" fill="#93e8e4" d="M 207.5,229.5 C 210.485,230.326 213.151,231.659 215.5,233.5C 212.246,233.206 209.579,231.873 207.5,229.5 Z"/></g>
<g><path style="opacity:0.325" fill="#81e8df" d="M 216.5,230.5 C 218.027,230.427 219.027,231.094 219.5,232.5C 217.973,232.573 216.973,231.906 216.5,230.5 Z"/></g>
<g><path style="opacity:0.239" fill="#86dfd6" d="M 286.5,229.5 C 283.67,230.735 280.67,231.735 277.5,232.5C 279.956,230.132 282.956,229.132 286.5,229.5 Z"/></g>
<g><path style="opacity:0.302" fill="#88dac1" d="M 124.5,230.5 C 126.104,231.287 126.771,232.62 126.5,234.5C 125.326,233.486 124.66,232.153 124.5,230.5 Z"/></g>
<g><path style="opacity:0.106" fill="#80e0c7" d="M 177.5,217.5 C 187.148,226.486 198.148,233.153 210.5,237.5C 212.076,238.143 213.41,239.143 214.5,240.5C 202.852,236.843 192.185,231.343 182.5,224C 180.21,222.223 178.543,220.056 177.5,217.5 Z"/></g>
<g><path style="opacity:0.451" fill="#8ef5dd" d="M 219.5,227.5 C 223.079,229.517 223.746,231.85 221.5,234.5C 220.833,233.833 220.167,233.167 219.5,232.5C 220.376,232.631 221.043,232.298 221.5,231.5C 220.37,230.378 219.703,229.044 219.5,227.5 Z"/></g>
<g><path style="opacity:0.271" fill="#8fe7d1" d="M 248.5,225.5 C 247.775,229.449 246.109,232.949 243.5,236C 239.934,238.117 236.6,237.95 233.5,235.5C 235.869,235.851 238.203,236.018 240.5,236C 243.55,232.705 246.217,229.205 248.5,225.5 Z"/></g>
<g><path style="opacity:0.596" fill="#9cead9" d="M 365.5,230.5 C 365.5,231.5 365.5,232.5 365.5,233.5C 364.5,234.167 363.5,234.833 362.5,235.5C 363.11,233.566 364.11,231.899 365.5,230.5 Z"/></g>
<g><path style="opacity:1" fill="#f2fcf5" d="M 365.5,233.5 C 366.458,233.953 367.292,234.619 368,235.5C 369.392,233.158 370.225,233.158 370.5,235.5C 369.833,237.167 369.167,238.833 368.5,240.5C 367.5,242.167 366.167,243.5 364.5,244.5C 355.108,247.71 345.775,251.043 336.5,254.5C 336.082,253.778 335.416,253.278 334.5,253C 335.737,252.768 336.737,252.268 337.5,251.5C 339.153,251.34 340.486,250.674 341.5,249.5C 347.921,247.123 353.921,243.956 359.5,240C 361.141,238.871 362.141,237.371 362.5,235.5C 363.5,234.833 364.5,234.167 365.5,233.5 Z"/></g>
<g><path style="opacity:0.361" fill="#86d7c6" d="M 137.5,233.5 C 142.098,234.465 146.098,236.465 149.5,239.5C 144.947,238.438 140.947,236.438 137.5,233.5 Z"/></g>
<g><path style="opacity:0.333" fill="#86dccd" d="M 174.5,232.5 C 175.906,232.973 176.573,233.973 176.5,235.5C 175.094,235.027 174.427,234.027 174.5,232.5 Z"/></g>
<g><path style="opacity:0.745" fill="#a6eeeb" d="M 282.5,233.5 C 280.485,234.924 278.152,235.59 275.5,235.5C 277.515,234.076 279.848,233.41 282.5,233.5 Z"/></g>
<g><path style="opacity:0.263" fill="#89ded5" d="M 215.5,233.5 C 217.5,233.833 219.5,234.167 221.5,234.5C 221.833,235.167 222.167,235.833 222.5,236.5C 220.421,236.029 218.421,235.363 216.5,234.5C 215.833,234.5 215.5,234.167 215.5,233.5 Z"/></g>
<g><path style="opacity:0.157" fill="#81e2cc" d="M 250.5,226.5 C 252.85,229.349 254.85,232.515 256.5,236C 260.234,236.14 263.901,235.64 267.5,234.5C 269.117,233.962 270.784,233.629 272.5,233.5C 269.647,234.877 266.647,236.044 263.5,237C 260.833,237.667 258.167,237.667 255.5,237C 252.885,233.938 251.219,230.438 250.5,226.5 Z"/></g>
<g><path style="opacity:0.043" fill="#79d1bb" d="M 127.5,236.5 C 128.906,236.973 129.573,237.973 129.5,239.5C 128.094,239.027 127.427,238.027 127.5,236.5 Z"/></g>
<g><path style="opacity:0.8" fill="#aaf2ee" d="M 274.5,235.5 C 273.833,236.167 273.167,236.833 272.5,237.5C 270.565,238.15 268.565,238.483 266.5,238.5C 268.792,236.733 271.458,235.733 274.5,235.5 Z"/></g>
<g><path style="opacity:0.314" fill="#88dac3" d="M 168.5,235.5 C 170.071,237.635 171.404,239.968 172.5,242.5C 169.917,241.015 168.584,238.682 168.5,235.5 Z"/></g>
<g><path style="opacity:0.071" fill="#7fd0bb" d="M 375.5,229.5 C 373.913,233.683 371.579,237.35 368.5,240.5C 369.167,238.833 369.833,237.167 370.5,235.5C 372.167,233.5 373.833,231.5 375.5,229.5 Z"/></g>
<g><path style="opacity:0.725" fill="#98dece" d="M 129.5,239.5 C 132.089,240.419 134.089,242.086 135.5,244.5C 132.911,243.581 130.911,241.914 129.5,239.5 Z"/></g>
<g><path style="opacity:0.004" fill="#87e1d1" d="M 225.5,237.5 C 227.882,238.351 229.882,239.684 231.5,241.5C 228.733,241.13 226.733,239.796 225.5,237.5 Z"/></g>
<g><path style="opacity:0.208" fill="#7ee1d1" d="M 266.5,238.5 C 265.341,240.25 263.674,241.25 261.5,241.5C 262.659,239.75 264.326,238.75 266.5,238.5 Z"/></g>
<g><path style="opacity:0.02" fill="#75d4c3" d="M 151.5,240.5 C 153.027,240.427 154.027,241.094 154.5,242.5C 152.973,242.573 151.973,241.906 151.5,240.5 Z"/></g>
<g><path style="opacity:0.282" fill="#85eccd" d="M 281.5,240.5 C 277.818,243.008 273.818,245.008 269.5,246.5C 272.914,243.46 276.914,241.46 281.5,240.5 Z"/></g>
<g><path style="opacity:0.235" fill="#8edccc" d="M 298.5,242.5 C 299.793,241.842 301.293,241.508 303,241.5C 305.544,241.336 307.71,242.003 309.5,243.5C 305.881,242.756 302.215,242.423 298.5,242.5 Z"/></g>
<g><path style="opacity:0.106" fill="#82d6c3" d="M 362.5,235.5 C 362.141,237.371 361.141,238.871 359.5,240C 353.921,243.956 347.921,247.123 341.5,249.5C 348.635,245.095 355.635,240.428 362.5,235.5 Z"/></g>
<g><path style="opacity:0.4" fill="#86e1d0" d="M 261.5,241.5 C 260.5,243.167 259.167,244.5 257.5,245.5C 257.833,243.167 259.167,241.833 261.5,241.5 Z"/></g>
<g><path style="opacity:1" fill="#f8fdfa" d="M 272.5,237.5 C 275.212,237.737 277.712,237.737 280,237.5C 280.717,238.044 281.217,238.711 281.5,239.5C 281.5,239.833 281.5,240.167 281.5,240.5C 276.914,241.46 272.914,243.46 269.5,246.5C 268.414,246.62 267.747,247.287 267.5,248.5C 268.901,250.956 271.068,252.289 274,252.5C 276.185,252.079 278.351,251.579 280.5,251C 281.942,250.623 282.942,249.79 283.5,248.5C 289.043,247.657 294.043,245.657 298.5,242.5C 302.215,242.423 305.881,242.756 309.5,243.5C 310.911,245.539 312.911,246.539 315.5,246.5C 319.058,248.935 323.058,250.268 327.5,250.5C 330.625,251.479 333.958,251.813 337.5,251.5C 336.737,252.268 335.737,252.768 334.5,253C 335.416,253.278 336.082,253.778 336.5,254.5C 329.984,256.269 323.317,256.936 316.5,256.5C 313.493,254.825 310.16,254.159 306.5,254.5C 303.696,253.362 300.696,253.195 297.5,254C 291.123,257.02 284.456,259.187 277.5,260.5C 275.488,260.16 273.488,259.827 271.5,259.5C 270.508,259.672 269.842,259.338 269.5,258.5C 268.522,255.675 266.522,254.342 263.5,254.5C 263.5,254.167 263.5,253.833 263.5,253.5C 262.791,252.596 261.791,252.263 260.5,252.5C 260.172,263.679 260.505,274.679 261.5,285.5C 261.935,293.495 262.269,301.495 262.5,309.5C 261.778,309.082 261.278,308.416 261,307.5C 260.667,307.833 260.333,308.167 260,308.5C 259.809,310.708 259.309,312.708 258.5,314.5C 257.572,302.854 256.905,291.188 256.5,279.5C 256.257,268.136 256.59,256.802 257.5,245.5C 259.167,244.5 260.5,243.167 261.5,241.5C 263.674,241.25 265.341,240.25 266.5,238.5C 268.565,238.483 270.565,238.15 272.5,237.5 Z"/></g>
<g><path style="opacity:0.678" fill="#9dead6" d="M 298.5,242.5 C 294.043,245.657 289.043,247.657 283.5,248.5C 288.105,245.704 293.105,243.704 298.5,242.5 Z"/></g>
<g><path style="opacity:0.373" fill="#8cd9ca" d="M 309.5,243.5 C 311.967,243.755 313.967,244.755 315.5,246.5C 312.911,246.539 310.911,245.539 309.5,243.5 Z"/></g>
<g><path style="opacity:0.086" fill="#78dcc9" d="M 154.5,242.5 C 157.331,243.079 159.664,244.412 161.5,246.5C 158.454,246.275 156.121,244.942 154.5,242.5 Z"/></g>
<g><path style="opacity:0.039" fill="#6dd0b7" d="M 137.5,245.5 C 139.153,245.66 140.486,246.326 141.5,247.5C 139.62,247.771 138.287,247.104 137.5,245.5 Z"/></g>
<g><path style="opacity:0.133" fill="#72cdc6" d="M 172.5,242.5 C 174.729,243.055 176.395,244.389 177.5,246.5C 176.311,247.429 174.978,247.762 173.5,247.5C 173.918,246.778 174.584,246.278 175.5,246C 174.29,244.961 173.29,243.794 172.5,242.5 Z"/></g>
<g><path style="opacity:0.192" fill="#82d2c3" d="M 315.5,246.5 C 321.469,248.485 327.469,249.818 333.5,250.5C 331.5,250.5 329.5,250.5 327.5,250.5C 323.058,250.268 319.058,248.935 315.5,246.5 Z"/></g>
<g><path style="opacity:0.196" fill="#7bdfcf" d="M 161.5,247.5 C 161.5,247.167 161.5,246.833 161.5,246.5C 165.466,247.162 169.466,247.495 173.5,247.5C 169.648,248.644 165.648,248.644 161.5,247.5 Z"/></g>
<g><path style="opacity:0.141" fill="#7ed8c5" d="M 231.5,241.5 C 233.836,243.004 235.669,245.004 237,247.5C 238.792,252 239.625,256.667 239.5,261.5C 238.519,257.252 237.352,252.919 236,248.5C 234.25,246.266 232.75,243.932 231.5,241.5 Z"/></g>
<g><path style="opacity:0.518" fill="#90dcc9" d="M 141.5,247.5 C 142.873,247.343 144.207,247.51 145.5,248C 147.618,249.082 149.618,250.249 151.5,251.5C 147.668,251.118 144.335,249.785 141.5,247.5 Z"/></g>
<g><path style="opacity:0.341" fill="#97ead4" d="M 269.5,246.5 C 269.196,247.15 268.863,247.817 268.5,248.5C 270.109,249.888 271.942,250.888 274,251.5C 277.154,250.393 280.32,249.393 283.5,248.5C 282.942,249.79 281.942,250.623 280.5,251C 278.351,251.579 276.185,252.079 274,252.5C 271.068,252.289 268.901,250.956 267.5,248.5C 267.747,247.287 268.414,246.62 269.5,246.5 Z"/></g>
<g><path style="opacity:0.508" fill="#a8e4d6" d="M 341.5,249.5 C 340.486,250.674 339.153,251.34 337.5,251.5C 333.958,251.813 330.625,251.479 327.5,250.5C 329.5,250.5 331.5,250.5 333.5,250.5C 336.096,249.735 338.763,249.401 341.5,249.5 Z"/></g>
<g><path style="opacity:0.051" fill="#81dac1" d="M 198.5,260.5 C 194.765,258.275 191.432,255.442 188.5,252C 183.435,251.742 178.435,252.242 173.5,253.5C 173.5,253.167 173.5,252.833 173.5,252.5C 178.704,250.746 184.038,250.246 189.5,251C 192.704,254.036 195.704,257.203 198.5,260.5 Z"/></g>
<g><path style="opacity:0.222" fill="#7cd2bc" d="M 151.5,251.5 C 158.721,253.112 166.054,253.778 173.5,253.5C 168.684,254.65 163.684,254.816 158.5,254C 155.896,253.61 153.562,252.776 151.5,251.5 Z"/></g>
<g><path style="opacity:1" fill="#f3fcf5" d="M 169.5,219.5 C 169.5,219.833 169.5,220.167 169.5,220.5C 169.77,224.358 171.103,227.691 173.5,230.5C 174.338,230.842 174.672,231.508 174.5,232.5C 174.427,234.027 175.094,235.027 176.5,235.5C 180.364,240.334 185.364,243.668 191.5,245.5C 192.167,245.5 192.5,245.833 192.5,246.5C 194.5,249.167 196.833,251.5 199.5,253.5C 202.103,257.259 205.436,258.259 209.5,256.5C 213.964,257.091 217.631,255.758 220.5,252.5C 222.97,252.346 224.97,251.346 226.5,249.5C 227.376,249.631 228.043,249.298 228.5,248.5C 227.717,246.712 226.384,245.712 224.5,245.5C 224.027,244.094 223.027,243.427 221.5,243.5C 219.574,241.707 217.241,240.707 214.5,240.5C 213.41,239.143 212.076,238.143 210.5,237.5C 213.606,238.733 216.606,238.567 219.5,237C 217.881,236.764 216.881,235.931 216.5,234.5C 218.421,235.363 220.421,236.029 222.5,236.5C 223.791,236.263 224.791,236.596 225.5,237.5C 226.733,239.796 228.733,241.13 231.5,241.5C 232.75,243.932 234.25,246.266 236,248.5C 237.352,252.919 238.519,257.252 239.5,261.5C 239.5,262.167 239.5,262.833 239.5,263.5C 239.5,278.167 239.5,292.833 239.5,307.5C 238.554,290.987 237.554,274.32 236.5,257.5C 235.548,259.045 235.215,260.712 235.5,262.5C 234.493,259.678 233.66,256.678 233,253.5C 232.333,252.833 231.667,252.167 231,251.5C 228.625,252.715 226.791,254.381 225.5,256.5C 223.973,256.427 222.973,257.094 222.5,258.5C 219.07,259.714 215.736,261.214 212.5,263C 209.167,263.667 205.833,263.667 202.5,263C 201.529,261.519 200.196,260.685 198.5,260.5C 195.704,257.203 192.704,254.036 189.5,251C 184.038,250.246 178.704,250.746 173.5,252.5C 167.527,253.697 162.527,252.197 158.5,248C 159.448,247.517 160.448,247.351 161.5,247.5C 165.648,248.644 169.648,248.644 173.5,247.5C 174.978,247.762 176.311,247.429 177.5,246.5C 176.395,244.389 174.729,243.055 172.5,242.5C 171.404,239.968 170.071,237.635 168.5,235.5C 167.63,230.486 166.63,225.486 165.5,220.5C 165.833,219.5 166.167,218.5 166.5,217.5C 167.518,218.193 168.518,218.859 169.5,219.5 Z"/></g>
<g><path style="opacity:0.349" fill="#81d5c3" d="M 226.5,249.5 C 224.97,251.346 222.97,252.346 220.5,252.5C 222.03,250.654 224.03,249.654 226.5,249.5 Z"/></g>
<g><path style="opacity:0.016" fill="#77d8c6" d="M 192.5,246.5 C 195.833,247.833 198.167,250.167 199.5,253.5C 196.833,251.5 194.5,249.167 192.5,246.5 Z"/></g>
<g><path style="opacity:0.369" fill="#7dcabd" d="M 224.5,245.5 C 226.384,245.712 227.717,246.712 228.5,248.5C 228.043,249.298 227.376,249.631 226.5,249.5C 226.267,247.938 225.6,246.605 224.5,245.5 Z"/></g>
<g><path style="opacity:0.314" fill="#7adac1" d="M 221.5,243.5 C 223.027,243.427 224.027,244.094 224.5,245.5C 222.973,245.573 221.973,244.906 221.5,243.5 Z"/></g>
<g><path style="opacity:0.333" fill="#8bdecd" d="M 176.5,235.5 C 181.523,238.867 186.523,242.2 191.5,245.5C 185.364,243.668 180.364,240.334 176.5,235.5 Z"/></g>
<g><path style="opacity:0.192" fill="#7fdfc7" d="M 214.5,240.5 C 217.241,240.707 219.574,241.707 221.5,243.5C 218.759,243.293 216.426,242.293 214.5,240.5 Z"/></g>
<g><path style="opacity:0.698" fill="#92decb" d="M 220.5,252.5 C 217.631,255.758 213.964,257.091 209.5,256.5C 212.992,254.931 216.659,253.598 220.5,252.5 Z"/></g>
<g><path style="opacity:0.333" fill="#83d4bf" d="M 306.5,254.5 C 310.16,254.159 313.493,254.825 316.5,256.5C 312.96,256.247 309.627,255.581 306.5,254.5 Z"/></g>
<g><path style="opacity:0.122" fill="#81d7bd" d="M 364.5,244.5 C 363.251,246.136 361.584,247.303 359.5,248C 348.136,252.123 336.636,255.623 325,258.5C 321.973,258.088 319.14,257.421 316.5,256.5C 323.317,256.936 329.984,256.269 336.5,254.5C 345.775,251.043 355.108,247.71 364.5,244.5 Z"/></g>
<g><path style="opacity:0.322" fill="#90ddce" d="M 199.5,253.5 C 202.446,255.631 205.779,256.631 209.5,256.5C 205.436,258.259 202.103,257.259 199.5,253.5 Z"/></g>
<g><path style="opacity:0.012" fill="#6fd4b7" d="M 263.5,253.5 C 263.5,253.833 263.5,254.167 263.5,254.5C 262.833,255.5 262.167,256.5 261.5,257.5C 261.157,255.517 261.824,254.183 263.5,253.5 Z"/></g>
<g><path style="opacity:0.384" fill="#9ae3cd" d="M 263.5,254.5 C 266.522,254.342 268.522,255.675 269.5,258.5C 267.223,257.551 265.223,256.218 263.5,254.5 Z"/></g>
<g><path style="opacity:0.102" fill="#81ddcb" d="M 225.5,256.5 C 225.027,257.906 224.027,258.573 222.5,258.5C 222.973,257.094 223.973,256.427 225.5,256.5 Z"/></g>
<g><path style="opacity:0.316" fill="#81d4bc" d="M 306.5,254.5 C 302.418,254.344 298.418,254.844 294.5,256C 288.16,260.56 281.16,262.227 273.5,261C 272.584,260.722 271.918,260.222 271.5,259.5C 273.488,259.827 275.488,260.16 277.5,260.5C 284.456,259.187 291.123,257.02 297.5,254C 300.696,253.195 303.696,253.362 306.5,254.5 Z"/></g>
<g><path style="opacity:0.451" fill="#8ddbc6" d="M 222.5,258.5 C 216.518,264.245 209.518,266.079 201.5,264C 200.29,262.961 199.29,261.794 198.5,260.5C 200.196,260.685 201.529,261.519 202.5,263C 205.833,263.667 209.167,263.667 212.5,263C 215.736,261.214 219.07,259.714 222.5,258.5 Z"/></g>
<g><path style="opacity:0.522" fill="#94e3ca" d="M 257.5,245.5 C 256.59,256.802 256.257,268.136 256.5,279.5C 256.167,279.5 255.833,279.5 255.5,279.5C 254.342,270.343 254.176,261.009 255,251.5C 255.24,249.148 256.073,247.148 257.5,245.5 Z"/></g>
<g><path style="opacity:0.539" fill="#afdbd0" d="M 263.5,253.5 C 261.824,254.183 261.157,255.517 261.5,257.5C 261.5,258.167 261.5,258.833 261.5,259.5C 261.5,268.167 261.5,276.833 261.5,285.5C 260.505,274.679 260.172,263.679 260.5,252.5C 261.791,252.263 262.791,252.596 263.5,253.5 Z"/></g>
<g><path style="opacity:0.265" fill="#76cdb7" d="M 261.5,259.5 C 262.039,281.064 263.373,302.731 265.5,324.5C 264.173,319.557 263.173,314.557 262.5,309.5C 262.269,301.495 261.935,293.495 261.5,285.5C 261.5,276.833 261.5,268.167 261.5,259.5 Z"/></g>
<g><path style="opacity:0.568" fill="#91dcc8" d="M 239.5,263.5 C 240.936,277.974 241.603,292.641 241.5,307.5C 241.5,316.34 241.166,325.007 240.5,333.5C 240.673,324.805 240.34,316.138 239.5,307.5C 239.5,292.833 239.5,278.167 239.5,263.5 Z"/></g>
<g><path style="opacity:0.362" fill="#91e0cb" d="M 235.5,262.5 C 235.667,280.17 235.5,297.836 235,315.5C 234.824,319.688 234.324,323.688 233.5,327.5C 234.387,307.173 234.554,286.839 234,266.5C 233.647,261.882 232.481,257.548 230.5,253.5C 229.06,254.952 227.394,255.952 225.5,256.5C 226.791,254.381 228.625,252.715 231,251.5C 231.667,252.167 232.333,252.833 233,253.5C 233.66,256.678 234.493,259.678 235.5,262.5 Z"/></g>
<g><path style="opacity:1" fill="#f2fbf2" d="M 239.5,307.5 C 240.34,316.138 240.673,324.805 240.5,333.5C 240.5,333.833 240.5,334.167 240.5,334.5C 239.607,342.574 238.107,350.574 236,358.5C 232.342,361.066 228.842,363.732 225.5,366.5C 223.216,366.975 221.216,367.975 219.5,369.5C 219.5,368.5 219.5,367.5 219.5,366.5C 218.5,366.5 217.5,366.5 216.5,366.5C 217.833,365.167 219.167,363.833 220.5,362.5C 222.749,361.92 224.415,360.587 225.5,358.5C 228.621,357.712 230.288,355.712 230.5,352.5C 232.265,349.877 232.932,346.877 232.5,343.5C 232.179,337.974 232.512,332.64 233.5,327.5C 234.324,323.688 234.824,319.688 235,315.5C 235.5,297.836 235.667,280.17 235.5,262.5C 235.215,260.712 235.548,259.045 236.5,257.5C 237.554,274.32 238.554,290.987 239.5,307.5 Z"/></g>
<g><path style="opacity:0.131" fill="#7cd9c1" d="M 255.5,279.5 C 255.833,279.5 256.167,279.5 256.5,279.5C 256.905,291.188 257.572,302.854 258.5,314.5C 258.5,318.5 258.5,322.5 258.5,326.5C 256.85,311.026 255.85,295.359 255.5,279.5 Z"/></g>
<g><path style="opacity:0.086" fill="#8de1ca" d="M 258.5,327.5 C 259.117,327.611 259.617,327.944 260,328.5C 259.97,339.597 261.97,350.264 266,360.5C 268.04,362.37 269.873,364.37 271.5,366.5C 267.515,364.679 264.681,361.679 263,357.5C 260.091,347.71 258.591,337.71 258.5,327.5 Z"/></g>
<g><path style="opacity:1" fill="#eef9f0" d="M 262.5,309.5 C 263.173,314.557 264.173,319.557 265.5,324.5C 266.868,331.073 267.868,337.74 268.5,344.5C 268.138,348.081 269.138,351.081 271.5,353.5C 272.338,353.842 272.672,354.508 272.5,355.5C 272.427,357.027 273.094,358.027 274.5,358.5C 275.415,360.754 276.748,362.754 278.5,364.5C 277.504,364.586 276.671,364.252 276,363.5C 275.51,364.793 275.343,366.127 275.5,367.5C 274.167,367.167 272.833,366.833 271.5,366.5C 269.873,364.37 268.04,362.37 266,360.5C 261.97,350.264 259.97,339.597 260,328.5C 259.617,327.944 259.117,327.611 258.5,327.5C 258.5,327.167 258.5,326.833 258.5,326.5C 258.5,322.5 258.5,318.5 258.5,314.5C 259.309,312.708 259.809,310.708 260,308.5C 260.333,308.167 260.667,307.833 261,307.5C 261.278,308.416 261.778,309.082 262.5,309.5 Z"/></g>
<g><path style="opacity:0.608" fill="#8dd7c8" d="M 268.5,344.5 C 269.669,347.341 270.669,350.341 271.5,353.5C 269.138,351.081 268.138,348.081 268.5,344.5 Z"/></g>
<g><path style="opacity:0.043" fill="#7ad2bb" d="M 232.5,343.5 C 232.932,346.877 232.265,349.877 230.5,352.5C 230.676,349.273 231.343,346.273 232.5,343.5 Z"/></g>
<g><path style="opacity:0.475" fill="#8fdbc8" d="M 230.5,352.5 C 230.288,355.712 228.621,357.712 225.5,358.5C 227.196,356.475 228.863,354.475 230.5,352.5 Z"/></g>
<g><path style="opacity:0.294" fill="#7dd3c6" d="M 272.5,355.5 C 273.906,355.973 274.573,356.973 274.5,358.5C 273.094,358.027 272.427,357.027 272.5,355.5 Z"/></g>
<g><path style="opacity:0.624" fill="#8fd7c7" d="M 225.5,358.5 C 224.415,360.587 222.749,361.92 220.5,362.5C 221.585,360.413 223.251,359.08 225.5,358.5 Z"/></g>
<g><path style="opacity:0.184" fill="#84d8c4" d="M 240.5,334.5 C 241.043,334.56 241.376,334.893 241.5,335.5C 240.516,342.858 239.349,350.192 238,357.5C 235.175,362.332 231.008,365.332 225.5,366.5C 228.842,363.732 232.342,361.066 236,358.5C 238.107,350.574 239.607,342.574 240.5,334.5 Z"/></g>
<g><path style="opacity:0.42" fill="#86d7c3" d="M 274.5,358.5 C 281.857,364.198 289.191,369.864 296.5,375.5C 290.194,372.346 284.194,368.68 278.5,364.5C 276.748,362.754 275.415,360.754 274.5,358.5 Z"/></g>
<g><path style="opacity:0.643" fill="#91d9c6" d="M 220.5,362.5 C 219.167,363.833 217.833,365.167 216.5,366.5C 215.609,367.11 214.609,367.443 213.5,367.5C 214.992,364.677 217.326,363.01 220.5,362.5 Z"/></g>
<g><path style="opacity:0.322" fill="#87e5cf" d="M 225.5,366.5 C 220.686,370.408 215.686,374.075 210.5,377.5C 212.88,374.119 215.88,371.453 219.5,369.5C 221.216,367.975 223.216,366.975 225.5,366.5 Z"/></g>
<g><path style="opacity:0.188" fill="#7decdd" d="M 271.5,366.5 C 272.833,366.833 274.167,367.167 275.5,367.5C 276.694,368.272 277.694,369.272 278.5,370.5C 275.669,369.921 273.336,368.588 271.5,366.5 Z"/></g>
<g><path style="opacity:0.341" fill="#8ce5c6" d="M 274.5,373.5 C 272.742,373.123 271.075,372.456 269.5,371.5C 269.167,371.833 268.833,372.167 268.5,372.5C 270.605,374.592 272.272,376.925 273.5,379.5C 273.784,381.415 273.451,383.081 272.5,384.5C 272.477,382.073 271.977,379.74 271,377.5C 268.778,375.615 266.944,373.449 265.5,371C 265.63,369.941 266.13,369.108 267,368.5C 269.928,369.607 272.428,371.274 274.5,373.5 Z"/></g>
<g><path style="opacity:0.267" fill="#83e8cf" d="M 278.5,370.5 C 280.153,370.66 281.486,371.326 282.5,372.5C 280.62,372.771 279.287,372.104 278.5,370.5 Z"/></g>
<g><path style="opacity:0.388" fill="#75d4ba" d="M 238.5,374.5 C 239.458,373.038 240.624,371.705 242,370.5C 242.688,369.668 242.521,369.002 241.5,368.5C 238.062,370.435 235.062,372.935 232.5,376C 230.975,377.009 229.308,377.509 227.5,377.5C 231.601,374.578 235.601,371.411 239.5,368C 241.641,367.116 243.307,367.616 244.5,369.5C 243.069,371.938 241.069,373.604 238.5,374.5 Z"/></g>
<g><path style="opacity:1" fill="#f2fce8" d="M 278.5,364.5 C 284.194,368.68 290.194,372.346 296.5,375.5C 296.833,376.5 297.5,377.167 298.5,377.5C 298.557,378.609 298.89,379.609 299.5,380.5C 299.662,382.527 299.495,384.527 299,386.5C 298.79,384.942 298.29,383.609 297.5,382.5C 296.441,380.445 294.775,379.111 292.5,378.5C 291.508,378.672 290.842,378.338 290.5,377.5C 290.027,376.094 289.027,375.427 287.5,375.5C 287.027,374.094 286.027,373.427 284.5,373.5C 283.508,373.672 282.842,373.338 282.5,372.5C 281.486,371.326 280.153,370.66 278.5,370.5C 277.694,369.272 276.694,368.272 275.5,367.5C 275.343,366.127 275.51,364.793 276,363.5C 276.671,364.252 277.504,364.586 278.5,364.5 Z"/></g>
<g><path style="opacity:0.067" fill="#7feedb" d="M 274.5,373.5 C 276.027,373.427 277.027,374.094 277.5,375.5C 275.973,375.573 274.973,374.906 274.5,373.5 Z"/></g>
<g><path style="opacity:0.247" fill="#75d1b6" d="M 213.5,367.5 C 209.153,370.848 205.486,374.848 202.5,379.5C 202.167,379.5 201.833,379.5 201.5,379.5C 203.833,373.833 207.833,369.833 213.5,367.5 Z"/></g>
<g><path style="opacity:0.38" fill="#86e1cc" d="M 284.5,373.5 C 286.027,373.427 287.027,374.094 287.5,375.5C 285.973,375.573 284.973,374.906 284.5,373.5 Z"/></g>
<g><path style="opacity:0.012" fill="#68d4bc" d="M 296.5,375.5 C 297.833,375.5 298.5,376.167 298.5,377.5C 297.5,377.167 296.833,376.5 296.5,375.5 Z"/></g>
<g><path style="opacity:0.184" fill="#79e6d1" d="M 277.5,375.5 C 279.027,375.427 280.027,376.094 280.5,377.5C 280.167,377.5 279.833,377.5 279.5,377.5C 278.5,377.167 277.833,376.5 277.5,375.5 Z"/></g>
<g><path style="opacity:0.349" fill="#83e2cc" d="M 287.5,375.5 C 289.027,375.427 290.027,376.094 290.5,377.5C 288.973,377.573 287.973,376.906 287.5,375.5 Z"/></g>
<g><path style="opacity:0.141" fill="#7bd7c4" d="M 263.5,380.5 C 259.56,377.797 255.227,376.964 250.5,378C 246.988,381.512 243.488,385.012 240,388.5C 237.295,387.43 235.795,385.43 235.5,382.5C 236.837,383.315 237.837,384.482 238.5,386C 239.5,386.667 240.5,386.667 241.5,386C 245.234,377.298 251.567,374.298 260.5,377C 262.063,377.759 263.063,378.926 263.5,380.5 Z"/></g>
<g><path style="opacity:1" fill="#f4fbe5" d="M 274.5,373.5 C 274.973,374.906 275.973,375.573 277.5,375.5C 277.833,376.5 278.5,377.167 279.5,377.5C 280.856,379.27 282.689,380.603 285,381.5C 285.667,382.5 285.667,383.5 285,384.5C 284.329,383.748 283.496,383.414 282.5,383.5C 281.833,383.5 281.167,383.5 280.5,383.5C 279.833,383.5 279.167,383.5 278.5,383.5C 278.167,383.5 277.833,383.5 277.5,383.5C 276.167,382.167 274.833,380.833 273.5,379.5C 272.272,376.925 270.605,374.592 268.5,372.5C 268.833,372.167 269.167,371.833 269.5,371.5C 271.075,372.456 272.742,373.123 274.5,373.5 Z"/></g>
<g><path style="opacity:0.306" fill="#86d9be" d="M 298.5,377.5 C 299.906,377.973 300.573,378.973 300.5,380.5C 300.167,380.5 299.833,380.5 299.5,380.5C 298.89,379.609 298.557,378.609 298.5,377.5 Z"/></g>
<g><path style="opacity:0.373" fill="#92dbc9" d="M 238.5,374.5 C 236.957,376.928 235.957,379.594 235.5,382.5C 233.756,378.966 234.756,376.299 238.5,374.5 Z"/></g>
<g><path style="opacity:0.106" fill="#86d6cb" d="M 292.5,378.5 C 294.775,379.111 296.441,380.445 297.5,382.5C 297.5,383.833 297.5,385.167 297.5,386.5C 293.519,387.004 290.519,385.671 288.5,382.5C 295.623,386.919 296.956,385.586 292.5,378.5 Z"/></g>
<g><path style="opacity:0.853" fill="#b5efd9" d="M 201.5,379.5 C 201.833,379.5 202.167,379.5 202.5,379.5C 201.735,382.096 201.401,384.763 201.5,387.5C 203.167,387.5 204.833,387.5 206.5,387.5C 206.5,387.833 206.5,388.167 206.5,388.5C 204.183,389.942 202.016,389.608 200,387.5C 199.297,384.518 199.797,381.851 201.5,379.5 Z"/></g>
<g><path style="opacity:0.024" fill="#7fd9c2" d="M 236.5,392.5 C 232.834,390.718 230.168,387.885 228.5,384C 227.5,383.833 226.5,383.667 225.5,383.5C 219.111,385.014 212.777,386.68 206.5,388.5C 206.5,388.167 206.5,387.833 206.5,387.5C 213.09,385.304 219.757,383.304 226.5,381.5C 227.772,381.57 228.938,381.903 230,382.5C 231.431,386.374 233.597,389.707 236.5,392.5 Z"/></g>
<g><path style="opacity:0.239" fill="#74d4ba" d="M 280.5,383.5 C 281.167,383.5 281.833,383.5 282.5,383.5C 282.833,384.167 283.167,384.833 283.5,385.5C 281.973,385.573 280.973,384.906 280.5,383.5 Z"/></g>
<g><path style="opacity:1" fill="#f3fcee" d="M 216.5,366.5 C 217.5,366.5 218.5,366.5 219.5,366.5C 219.5,367.5 219.5,368.5 219.5,369.5C 215.88,371.453 212.88,374.119 210.5,377.5C 208.744,378.552 208.077,380.219 208.5,382.5C 210.099,382.768 211.432,382.434 212.5,381.5C 212.833,381.5 213.167,381.5 213.5,381.5C 218.437,380.739 223.103,379.405 227.5,377.5C 229.308,377.509 230.975,377.009 232.5,376C 235.062,372.935 238.062,370.435 241.5,368.5C 242.521,369.002 242.688,369.668 242,370.5C 240.624,371.705 239.458,373.038 238.5,374.5C 234.756,376.299 233.756,378.966 235.5,382.5C 235.795,385.43 237.295,387.43 240,388.5C 243.488,385.012 246.988,381.512 250.5,378C 255.227,376.964 259.56,377.797 263.5,380.5C 264.75,383.067 265.917,385.733 267,388.5C 268.756,389.985 269.923,389.652 270.5,387.5C 271.906,387.027 272.573,386.027 272.5,384.5C 273.451,383.081 273.784,381.415 273.5,379.5C 274.833,380.833 276.167,382.167 277.5,383.5C 272.221,397.479 266.721,397.812 261,384.5C 258.79,381.71 255.956,380.877 252.5,382C 249.462,384.703 246.795,387.703 244.5,391C 241.986,392.252 239.32,392.752 236.5,392.5C 233.597,389.707 231.431,386.374 230,382.5C 228.938,381.903 227.772,381.57 226.5,381.5C 219.757,383.304 213.09,385.304 206.5,387.5C 204.833,387.5 203.167,387.5 201.5,387.5C 201.401,384.763 201.735,382.096 202.5,379.5C 205.486,374.848 209.153,370.848 213.5,367.5C 214.609,367.443 215.609,367.11 216.5,366.5 Z"/></g>
<g><path style="opacity:0.129" fill="#87ddcf" d="M 263.5,380.5 C 266.112,382.052 267.445,384.386 267.5,387.5C 268.5,387.5 269.5,387.5 270.5,387.5C 269.923,389.652 268.756,389.985 267,388.5C 265.917,385.733 264.75,383.067 263.5,380.5 Z"/></g>
<g><path style="opacity:0.141" fill="#86e0d4" d="M 210.5,377.5 C 210.461,378.583 210.127,379.583 209.5,380.5C 210.325,381.386 211.325,381.719 212.5,381.5C 211.432,382.434 210.099,382.768 208.5,382.5C 208.077,380.219 208.744,378.552 210.5,377.5 Z"/></g>
<g><path style="opacity:0.537" fill="#7edbc4" d="M 227.5,377.5 C 223.103,379.405 218.437,380.739 213.5,381.5C 217.759,379.054 222.426,377.721 227.5,377.5 Z"/></g>
<g><path style="opacity:1" fill="#e6faed" d="M 279.5,377.5 C 279.833,377.5 280.167,377.5 280.5,377.5C 283.511,378.669 286.178,380.336 288.5,382.5C 290.519,385.671 293.519,387.004 297.5,386.5C 297.5,385.167 297.5,383.833 297.5,382.5C 298.29,383.609 298.79,384.942 299,386.5C 299.495,384.527 299.662,382.527 299.5,380.5C 299.833,380.5 300.167,380.5 300.5,380.5C 300.665,383.518 300.498,386.518 300,389.5C 297.619,390.435 295.119,390.768 292.5,390.5C 289.78,388.473 286.78,386.807 283.5,385.5C 283.167,384.833 282.833,384.167 282.5,383.5C 283.496,383.414 284.329,383.748 285,384.5C 285.667,383.5 285.667,382.5 285,381.5C 282.689,380.603 280.856,379.27 279.5,377.5 Z"/></g>
<g><path style="opacity:0.035" fill="#76d6b6" d="M 283.5,385.5 C 286.78,386.807 289.78,388.473 292.5,390.5C 288.748,390.06 285.748,388.393 283.5,385.5 Z"/></g>
<g><path style="opacity:0.357" fill="#7bd6bb" d="M 300.5,380.5 C 302.324,383.773 302.491,387.106 301,390.5C 298.043,393.106 295.21,393.106 292.5,390.5C 295.119,390.768 297.619,390.435 300,389.5C 300.498,386.518 300.665,383.518 300.5,380.5 Z"/></g>
<g><path style="opacity:0.294" fill="#85dac3" d="M 277.5,383.5 C 277.833,383.5 278.167,383.5 278.5,383.5C 277.37,389.965 273.703,394.298 267.5,396.5C 266.252,395.96 265.085,395.293 264,394.5C 262.5,391.5 261,388.5 259.5,385.5C 257.473,383.661 255.14,383.161 252.5,384C 249.833,387 247.167,390 244.5,393C 241.633,393.801 238.966,393.634 236.5,392.5C 239.32,392.752 241.986,392.252 244.5,391C 246.795,387.703 249.462,384.703 252.5,382C 255.956,380.877 258.79,381.71 261,384.5C 266.721,397.812 272.221,397.479 277.5,383.5 Z"/></g>
<g><path style="opacity:0.227" fill="#73d7c5" d="M 272.5,384.5 C 272.573,386.027 271.906,387.027 270.5,387.5C 270.427,385.973 271.094,384.973 272.5,384.5 Z"/></g>
</svg>
